<?xml version="1.0" standalone="no"?>
<svg class="histogram" height="661.890625" width="640" style="overflow: visible;" xmlns="http://www.w3.org/2000/svg"><g transform="translate(60, 60)" class="plot" style="font-family: Rajdhani, sans-serif;"><g><rect class="bar" transform="translate(0, 0)" x="0" width="65" height="520" fill="#234099"></rect><rect class="bar" transform="translate(65, 519.9370574350904)" x="0" width="65" height="0.0629425649095765" fill="#234099"></rect><rect class="bar" transform="translate(130, 519.9842643587726)" x="0" width="65" height="0.015735641227365704" fill="#234099"></rect><rect class="bar" transform="translate(195, 519.9842643587726)" x="0" width="65" height="0.015735641227365704" fill="#234099"></rect><rect class="bar" transform="translate(260, 520)" x="0" width="65" height="0" fill="#234099"></rect><rect class="bar" transform="translate(325, 520)" x="0" width="65" height="0" fill="#234099"></rect><rect class="bar" transform="translate(390, 520)" x="0" width="65" height="0" fill="#234099"></rect><rect class="bar" transform="translate(455, 519.9921321793863)" x="0" width="65" height="0.007867820613682852" fill="#234099"></rect></g><g class="axis" transform="translate(0, 520)" fill="none" font-size="10" font-family="sans-serif" text-anchor="middle"><path class="domain" stroke="#000" d="M0.5,6V0.5H520.5V6"></path><g class="tick" opacity="1" transform="translate(0.5,0)"><line stroke="#000" y2="6"></line><text fill="#000" y="9" dy="-.45em" text-anchor="start" dx=".8em" transform="rotate(90)">0.0</text></g><g class="tick" opacity="1" transform="translate(0.5,0)"><line stroke="#000" y2="6"></line><text fill="#000" y="9" dy="-.45em" text-anchor="start" dx=".8em" transform="rotate(90)">0.0</text></g><g class="tick" opacity="1" transform="translate(260.5,0)"><line stroke="#000" y2="6"></line><text fill="#000" y="9" dy="-.45em" text-anchor="start" dx=".8em" transform="rotate(90)">0.5</text></g><g class="tick" opacity="1" transform="translate(520.5,0)"><line stroke="#000" y2="6"></line><text fill="#000" y="9" dy="-.45em" text-anchor="start" dx=".8em" transform="rotate(90)">1.0</text></g></g><text transform="translate(260, 565.890625)" style="text-anchor: middle;">price_per_m2</text></g></svg>