<?xml version="1.0" standalone="no"?>
<svg class="parallel-coordinate-plot" height="640" style="padding-left: 40px; overflow: visible; padding-right: 100px; padding-bottom: 40px;" width="1180" xmlns="http://www.w3.org/2000/svg"><g><rect class="padding" height="640" fill="transparent" width="1180"></rect></g><g transform="translate(50, 100)" class="plot" style="font-family: Rajdhani, sans-serif;"><g class="line-group"><path class="line" fill="none" stroke="#234099" d="M0,510L100,510L200,504.9L300,504.9L400,510L500,510L600,510L700,510L800,367.2" style="opacity: 0.2;"></path><path class="line" fill="none" stroke="#234099" d="M0,510L100,487.82608695652175L200,510L300,510L400,510L500,510L600,510L700,510L800,0" style="opacity: 0.2;"></path><path class="line" fill="none" stroke="#234099" d="M0,510L100,487.82608695652175L200,499.8L300,499.8L400,510L500,510L600,499.8L700,504.9L800,510" style="opacity: 0.2;"></path><path class="line" fill="none" stroke="#20B818" d="M0,510L100,465.6521739130435L200,382.5L300,382.5L400,510L500,510L600,438.6L700,474.3L800,510" style="opacity: 0.2;"></path><path class="line" fill="none" stroke="#234099" d="M0,510L100,487.82608695652175L200,499.8L300,499.8L400,510L500,510L600,510L700,510L800,484.5" style="opacity: 0.2;"></path><path class="line" fill="none" stroke="#E3E01E" d="M0,510L100,487.82608695652175L200,494.7L300,494.7L400,510L500,510L600,504.9L700,510L800,499.8" style="opacity: 0.2;"></path><path class="line" fill="none" stroke="#234099" d="M0,510L100,487.82608695652175L200,504.9L300,504.9L400,504.9L500,510L600,510L700,510L800,504.9" style="opacity: 0.2;"></path><path class="line" fill="none" stroke="#234099" d="M0,255L100,443.47826086956525L200,504.9L300,504.9L400,494.7L500,510L600,510L700,510L800,510" style="opacity: 0.2;"></path><path class="line" fill="none" stroke="#234099" d="M0,510L100,443.47826086956525L200,504.9L300,504.9L400,499.8L500,510L600,510L700,510L800,510" style="opacity: 0.2;"></path><path class="line" fill="none" stroke="#234099" d="M0,510L100,421.304347826087L200,499.8L300,499.8L400,504.9L500,510L600,510L700,510L800,474.3" style="opacity: 0.2;"></path><path class="line" fill="none" stroke="#000" d="M0,510L100,487.82608695652175L200,474.3L300,474.3L400,510L500,510L600,469.2L700,494.7L800,510" style="opacity: 0.2;"></path><path class="line" fill="none" stroke="#234099" d="M0,510L100,421.304347826087L200,510L300,510L400,504.9L500,510L600,510L700,510L800,479.4" style="opacity: 0.2;"></path><path class="line" fill="none" stroke="#234099" d="M0,510L100,399.13043478260875L200,510L300,510L400,510L500,510L600,499.8L700,510L800,510" style="opacity: 0.2;"></path><path class="line" fill="none" stroke="#B9186D" d="M0,255L100,487.82608695652175L200,510L300,510L400,112.19999999999999L500,510L600,510L700,510L800,510" style="opacity: 0.2;"></path><path class="line" fill="none" stroke="#234099" d="M0,510L100,376.9565217391305L200,499.8L300,499.8L400,479.4L500,510L600,510L700,510L800,510" style="opacity: 0.2;"></path><path class="line" fill="none" stroke="#234099" d="M0,510L100,421.304347826087L200,494.7L300,494.7L400,504.9L500,510L600,510L700,510L800,504.9" style="opacity: 0.2;"></path><path class="line" fill="none" stroke="#714213" d="M0,510L100,354.78260869565224L200,464.1L300,464.1L400,453.9L500,504.9L600,510L700,510L800,510" style="opacity: 0.2;"></path><path class="line" fill="none" stroke="#E3E01E" d="M0,0L100,332.608695652174L200,469.2L300,469.2L400,494.7L500,504.9L600,510L700,510L800,510" style="opacity: 0.2;"></path><path class="line" fill="none" stroke="#714213" d="M0,0L100,376.9565217391305L200,510L300,510L400,469.2L500,504.9L600,510L700,510L800,510" style="opacity: 0.2;"></path><path class="line" fill="none" stroke="#234099" d="M0,255L100,443.47826086956525L200,504.9L300,504.9L400,510L500,510L600,504.9L700,510L800,499.8" style="opacity: 0.2;"></path><path class="line" fill="none" stroke="#234099" d="M0,255L100,421.304347826087L200,504.9L300,504.9L400,510L500,510L600,510L700,510L800,459" style="opacity: 0.2;"></path><path class="line" fill="none" stroke="#234099" d="M0,255L100,443.47826086956525L200,499.8L300,499.8L400,510L500,510L600,504.9L700,510L800,504.9" style="opacity: 0.2;"></path><path class="line" fill="none" stroke="#E3E01E" d="M0,510L100,443.47826086956525L200,489.6L300,489.6L400,510L500,510L600,504.9L700,510L800,504.9" style="opacity: 0.2;"></path><path class="line" fill="none" stroke="#234099" d="M0,510L100,421.304347826087L200,510L300,510L400,489.6L500,510L600,510L700,510L800,510" style="opacity: 0.2;"></path><path class="line" fill="none" stroke="#E3E01E" d="M0,510L100,310.43478260869574L200,494.7L300,494.7L400,510L500,510L600,504.9L700,510L800,510" style="opacity: 0.2;"></path><path class="line" fill="none" stroke="#E3E01E" d="M0,255L100,443.47826086956525L200,494.7L300,494.7L400,499.8L500,510L600,510L700,510L800,510" style="opacity: 0.2;"></path><path class="line" fill="none" stroke="#E3E01E" d="M0,510L100,443.47826086956525L200,484.5L300,484.5L400,504.9L500,510L600,504.9L700,510L800,510" style="opacity: 0.2;"></path><path class="line" fill="none" stroke="#234099" d="M0,510L100,399.13043478260875L200,510L300,510L400,510L500,510L600,510L700,464.1L800,510" style="opacity: 0.2;"></path><path class="line" fill="none" stroke="#E3E01E" d="M0,510L100,443.47826086956525L200,489.6L300,489.6L400,510L500,510L600,489.6L700,510L800,510" style="opacity: 0.2;"></path><path class="line" fill="none" stroke="#E3E01E" d="M0,0L100,288.2608695652175L200,484.5L300,484.5L400,484.5L500,510L600,510L700,510L800,510" style="opacity: 0.2;"></path><path class="line" fill="none" stroke="#714213" d="M0,255L100,443.47826086956525L200,504.9L300,504.9L400,397.8L500,510L600,510L700,510L800,510" style="opacity: 0.2;"></path><path class="line" fill="none" stroke="#000" d="M0,510L100,443.47826086956525L200,484.5L300,484.5L400,510L500,510L600,504.9L700,510L800,510" style="opacity: 0.2;"></path><path class="line" fill="none" stroke="#234099" d="M0,510L100,443.47826086956525L200,504.9L300,504.9L400,484.5L500,510L600,510L700,510L800,510" style="opacity: 0.2;"></path><path class="line" fill="none" stroke="#234099" d="M0,255L100,443.47826086956525L200,499.8L300,499.8L400,489.6L500,510L600,510L700,510L800,510" style="opacity: 0.2;"></path><path class="line" fill="none" stroke="#714213" d="M0,255L100,443.47826086956525L200,510L300,510L400,408L500,510L600,510L700,510L800,510" style="opacity: 0.2;"></path><path class="line" fill="none" stroke="#E3E01E" d="M0,510L100,443.47826086956525L200,479.4L300,479.4L400,504.9L500,510L600,510L700,510L800,510" style="opacity: 0.2;"></path><path class="line" fill="none" stroke="#E3E01E" d="M0,510L100,443.47826086956525L200,433.5L300,433.5L400,504.9L500,510L600,504.9L700,510L800,510" style="opacity: 0.2;"></path><path class="line" fill="none" stroke="#E3E01E" d="M0,510L100,443.47826086956525L200,489.6L300,489.6L400,504.9L500,510L600,510L700,510L800,510" style="opacity: 0.2;"></path><path class="line" fill="none" stroke="#E3E01E" d="M0,510L100,443.47826086956525L200,489.6L300,489.6L400,499.8L500,510L600,510L700,510L800,510" style="opacity: 0.2;"></path><path class="line" fill="none" stroke="#ff4d00" d="M0,510L100,376.9565217391305L200,0L300,0L400,510L500,510L600,0L700,295.8L800,510" style="opacity: 1;"></path><path class="line" fill="none" stroke="#E3E01E" d="M0,510L100,443.47826086956525L200,469.2L300,469.2L400,510L500,510L600,504.9L700,510L800,510" style="opacity: 0.2;"></path><path class="line" fill="none" stroke="#714213" d="M0,255L100,443.47826086956525L200,504.9L300,504.9L400,402.9L500,510L600,510L700,510L800,510" style="opacity: 0.2;"></path><path class="line" fill="none" stroke="#E3E01E" d="M0,510L100,443.47826086956525L200,479.4L300,479.4L400,494.7L500,510L600,510L700,510L800,510" style="opacity: 0.2;"></path><path class="line" fill="none" stroke="#714213" d="M0,255L100,443.47826086956525L200,504.9L300,504.9L400,459L500,510L600,510L700,510L800,510" style="opacity: 0.2;"></path><path class="line" fill="none" stroke="#E3E01E" d="M0,510L100,443.47826086956525L200,464.1L300,464.1L400,469.2L500,510L600,510L700,510L800,510" style="opacity: 0.2;"></path><path class="line" fill="none" stroke="#714213" d="M0,255L100,443.47826086956525L200,504.9L300,504.9L400,474.3L500,510L600,510L700,510L800,510" style="opacity: 0.2;"></path><path class="line" fill="none" stroke="#E3E01E" d="M0,510L100,443.47826086956525L200,474.3L300,474.3L400,504.9L500,510L600,504.9L700,510L800,510" style="opacity: 0.2;"></path><path class="line" fill="none" stroke="#234099" d="M0,510L100,266.08695652173924L200,510L300,510L400,510L500,510L600,510L700,499.8L800,510" style="opacity: 0.2;"></path><path class="line" fill="none" stroke="#B9186D" d="M0,255L100,443.47826086956525L200,510L300,510L400,326.4L500,510L600,510L700,510L800,510" style="opacity: 0.2;"></path><path class="line" fill="none" stroke="#E3E01E" d="M0,510L100,443.47826086956525L200,484.5L300,484.5L400,499.8L500,510L600,510L700,510L800,510" style="opacity: 0.2;"></path><path class="line" fill="none" stroke="#000" d="M0,510L100,443.47826086956525L200,453.9L300,453.9L400,504.9L500,510L600,504.9L700,510L800,510" style="opacity: 0.2;"></path><path class="line" fill="none" stroke="#234099" d="M0,255L100,443.47826086956525L200,504.9L300,504.9L400,489.6L500,510L600,510L700,510L800,510" style="opacity: 0.2;"></path><path class="line" fill="none" stroke="#714213" d="M0,510L100,443.47826086956525L200,484.5L300,484.5L400,453.9L500,510L600,510L700,510L800,510" style="opacity: 0.2;"></path><path class="line" fill="none" stroke="#234099" d="M0,510L100,399.13043478260875L200,510L300,510L400,510L500,510L600,484.5L700,510L800,510" style="opacity: 0.2;"></path><path class="line" fill="none" stroke="#E3E01E" d="M0,510L100,443.47826086956525L200,464.1L300,464.1L400,504.9L500,510L600,504.9L700,510L800,510" style="opacity: 0.2;"></path><path class="line" fill="none" stroke="#000" d="M0,0L100,332.608695652174L200,408L300,408L400,459L500,510L600,510L700,510L800,510" style="opacity: 0.2;"></path><path class="line" fill="none" stroke="#714213" d="M0,255L100,443.47826086956525L200,499.8L300,499.8L400,423.3L500,510L600,510L700,510L800,510" style="opacity: 0.2;"></path><path class="line" fill="none" stroke="#E3E01E" d="M0,510L100,443.47826086956525L200,464.1L300,464.1L400,499.8L500,510L600,510L700,510L800,510" style="opacity: 0.2;"></path><path class="line" fill="none" stroke="#E3E01E" d="M0,510L100,243.913043478261L200,469.2L300,469.2L400,504.9L500,510L600,510L700,510L800,510" style="opacity: 0.2;"></path><path class="line" fill="none" stroke="#E3E01E" d="M0,510L100,399.13043478260875L200,459L300,459L400,504.9L500,510L600,504.9L700,510L800,510" style="opacity: 0.2;"></path><path class="line" fill="none" stroke="#234099" d="M0,510L100,221.73913043478274L200,494.7L300,494.7L400,484.5L500,510L600,510L700,510L800,510" style="opacity: 0.2;"></path><path class="line" fill="none" stroke="#234099" d="M0,510L100,221.73913043478274L200,510L300,510L400,510L500,510L600,510L700,479.4L800,510" style="opacity: 0.2;"></path><path class="line" fill="none" stroke="#000" d="M0,510L100,288.2608695652175L200,474.3L300,474.3L400,499.8L500,510L600,510L700,510L800,510" style="opacity: 0.2;"></path><path class="line" fill="none" stroke="#000" d="M0,0L100,465.6521739130435L200,494.7L300,494.7L400,510L500,510L600,494.7L700,510L800,510" style="opacity: 0.2;"></path><path class="line" fill="none" stroke="#000" d="M0,0L100,465.6521739130435L200,494.7L300,494.7L400,510L500,510L600,494.7L700,504.9L800,510" style="opacity: 0.2;"></path><path class="line" fill="none" stroke="#B9186D" d="M0,510L100,199.5652173913045L200,464.1L300,464.1L400,198.90000000000003L500,510L600,510L700,510L800,510" style="opacity: 0.2;"></path><path class="line" fill="none" stroke="#E3E01E" d="M0,510L100,243.913043478261L200,484.5L300,484.5L400,494.7L500,510L600,510L700,510L800,510" style="opacity: 0.2;"></path><path class="line" fill="none" stroke="#714213" d="M0,255L100,399.13043478260875L200,504.9L300,504.9L400,459L500,510L600,510L700,510L800,510" style="opacity: 0.2;"></path><path class="line" fill="none" stroke="#714213" d="M0,0L100,177.39130434782624L200,499.8L300,499.8L400,448.8L500,510L600,510L700,504.9L800,510" style="opacity: 0.2;"></path><path class="line" fill="none" stroke="#714213" d="M0,255L100,243.913043478261L200,504.9L300,504.9L400,448.8L500,510L600,510L700,510L800,510" style="opacity: 0.2;"></path><path class="line" fill="none" stroke="#234099" d="M0,510L100,399.13043478260875L200,510L300,510L400,510L500,510L600,510L700,459L800,510" style="opacity: 0.2;"></path><path class="line" fill="none" stroke="#714213" d="M0,510L100,332.608695652174L200,499.8L300,499.8L400,397.8L500,484.5L600,510L700,510L800,510" style="opacity: 0.2;"></path><path class="line" fill="none" stroke="#714213" d="M0,510L100,399.13043478260875L200,504.9L300,504.9L400,464.1L500,510L600,510L700,510L800,510" style="opacity: 0.2;"></path><path class="line" fill="none" stroke="#234099" d="M0,510L100,465.6521739130435L200,499.8L300,499.8L400,504.9L500,510L600,510L700,510L800,510" style="opacity: 0.2;"></path><path class="line" fill="none" stroke="#234099" d="M0,510L100,465.6521739130435L200,499.8L300,499.8L400,494.7L500,510L600,510L700,510L800,510" style="opacity: 0.2;"></path><path class="line" fill="none" stroke="#234099" d="M0,510L100,399.13043478260875L200,504.9L300,504.9L400,510L500,510L600,510L700,387.6L800,510" style="opacity: 0.2;"></path><path class="line" fill="none" stroke="#E3E01E" d="M0,510L100,199.5652173913045L200,459L300,459L400,484.5L500,510L600,510L700,510L800,510" style="opacity: 0.2;"></path><path class="line" fill="none" stroke="#714213" d="M0,510L100,199.5652173913045L200,494.7L300,494.7L400,459L500,510L600,510L700,510L800,510" style="opacity: 0.2;"></path><path class="line" fill="none" stroke="#E3E01E" d="M0,510L100,199.5652173913045L200,438.6L300,438.6L400,499.8L500,510L600,510L700,510L800,510" style="opacity: 0.2;"></path><path class="line" fill="none" stroke="#714213" d="M0,510L100,243.913043478261L200,504.9L300,504.9L400,474.3L500,510L600,510L700,510L800,510" style="opacity: 0.2;"></path><path class="line" fill="none" stroke="#714213" d="M0,510L100,199.5652173913045L200,504.9L300,504.9L400,453.9L500,499.8L600,510L700,510L800,510" style="opacity: 0.2;"></path><path class="line" fill="none" stroke="#714213" d="M0,0L100,199.5652173913045L200,479.4L300,479.4L400,459L500,499.8L600,510L700,510L800,510" style="opacity: 0.2;"></path><path class="line" fill="none" stroke="#E3E01E" d="M0,510L100,332.608695652174L200,443.7L300,443.7L400,484.5L500,510L600,510L700,510L800,510" style="opacity: 0.2;"></path><path class="line" fill="none" stroke="#B9186D" d="M0,510L100,332.608695652174L200,504.9L300,504.9L400,311.1L500,510L600,510L700,510L800,510" style="opacity: 0.2;"></path><path class="line" fill="none" stroke="#20B818" d="M0,0L100,155.21739130434798L200,387.6L300,387.6L400,504.9L500,510L600,499.8L700,504.9L800,510" style="opacity: 0.2;"></path><path class="line" fill="none" stroke="#E3E01E" d="M0,510L100,243.913043478261L200,479.4L300,479.4L400,494.7L500,510L600,510L700,510L800,510" style="opacity: 0.2;"></path><path class="line" fill="none" stroke="#234099" d="M0,510L100,376.9565217391305L200,510L300,510L400,510L500,510L600,510L700,484.5L800,510" style="opacity: 0.2;"></path><path class="line" fill="none" stroke="#E3E01E" d="M0,0L100,199.5652173913045L200,453.9L300,453.9L400,504.9L500,510L600,504.9L700,510L800,510" style="opacity: 0.2;"></path><path class="line" fill="none" stroke="#000" d="M0,510L100,310.43478260869574L200,479.4L300,479.4L400,510L500,510L600,499.8L700,504.9L800,510" style="opacity: 0.2;"></path><path class="line" fill="none" stroke="#E3E01E" d="M0,510L100,288.2608695652175L200,489.6L300,489.6L400,484.5L500,510L600,510L700,510L800,510" style="opacity: 0.2;"></path><path class="line" fill="none" stroke="#20B818" d="M0,510L100,376.9565217391305L200,357L300,357L400,510L500,510L600,494.7L700,464.1L800,510" style="opacity: 0.2;"></path><path class="line" fill="none" stroke="#E3E01E" d="M0,510L100,332.608695652174L200,448.8L300,448.8L400,499.8L500,510L600,510L700,510L800,510" style="opacity: 0.2;"></path><path class="line" fill="none" stroke="#234099" d="M0,510L100,266.08695652173924L200,504.9L300,504.9L400,510L500,510L600,510L700,321.3L800,510" style="opacity: 0.2;"></path><path class="line" fill="none" stroke="#234099" d="M0,510L100,399.13043478260875L200,510L300,510L400,510L500,510L600,510L700,494.7L800,510" style="opacity: 0.2;"></path><path class="line" fill="none" stroke="#714213" d="M0,0L100,133.04347826086973L200,499.8L300,499.8L400,474.3L500,504.9L600,510L700,510L800,510" style="opacity: 0.2;"></path><path class="line" fill="none" stroke="#234099" d="M0,510L100,110.86956521739147L200,510L300,510L400,499.8L500,510L600,510L700,510L800,510" style="opacity: 0.2;"></path><path class="line" fill="none" stroke="#714213" d="M0,510L100,465.6521739130435L200,510L300,510L400,474.3L500,408L600,510L700,510L800,510" style="opacity: 0.2;"></path><path class="line" fill="none" stroke="#234099" d="M0,510L100,88.6956521739132L200,510L300,510L400,510L500,510L600,494.7L700,504.9L800,510" style="opacity: 0.2;"></path><path class="line" fill="none" stroke="#234099" d="M0,510L100,310.43478260869574L200,504.9L300,504.9L400,504.9L500,510L600,510L700,510L800,510" style="opacity: 0.2;"></path><path class="line" fill="none" stroke="#234099" d="M0,510L100,310.43478260869574L200,510L300,510L400,510L500,510L600,499.8L700,510L800,510" style="opacity: 0.2;"></path><path class="line" fill="none" stroke="#234099" d="M0,510L100,310.43478260869574L200,510L300,510L400,510L500,504.9L600,510L700,510L800,510" style="opacity: 0.2;"></path><path class="line" fill="none" stroke="#714213" d="M0,510L100,376.9565217391305L200,504.9L300,504.9L400,387.6L500,510L600,510L700,510L800,510" style="opacity: 0.2;"></path><path class="line" fill="none" stroke="#714213" d="M0,510L100,66.52173913043494L200,510L300,510L400,479.4L500,510L600,510L700,510L800,510" style="opacity: 0.2;"></path><path class="line" fill="none" stroke="#234099" d="M0,510L100,88.6956521739132L200,510L300,510L400,510L500,510L600,484.5L700,499.8L800,510" style="opacity: 0.2;"></path><path class="line" fill="none" stroke="#714213" d="M0,510L100,376.9565217391305L200,479.4L300,479.4L400,443.7L500,510L600,510L700,504.9L800,510" style="opacity: 0.2;"></path><path class="line" fill="none" stroke="#714213" d="M0,510L100,376.9565217391305L200,499.8L300,499.8L400,469.2L500,510L600,510L700,510L800,510" style="opacity: 0.2;"></path><path class="line" fill="none" stroke="#000" d="M0,0L100,310.43478260869574L200,464.1L300,464.1L400,510L500,510L600,428.4L700,494.7L800,510" style="opacity: 0.2;"></path><path class="line" fill="none" stroke="#E3E01E" d="M0,510L100,399.13043478260875L200,494.7L300,494.7L400,499.8L500,510L600,510L700,510L800,510" style="opacity: 0.2;"></path><path class="line" fill="none" stroke="#E3E01E" d="M0,510L100,332.608695652174L200,479.4L300,479.4L400,469.2L500,510L600,510L700,510L800,510" style="opacity: 0.2;"></path><path class="line" fill="none" stroke="#E3E01E" d="M0,510L100,399.13043478260875L200,484.5L300,484.5L400,504.9L500,510L600,510L700,510L800,510" style="opacity: 0.2;"></path><path class="line" fill="none" stroke="#234099" d="M0,255L100,399.13043478260875L200,504.9L300,504.9L400,484.5L500,510L600,510L700,510L800,510" style="opacity: 0.2;"></path><path class="line" fill="none" stroke="#234099" d="M0,510L100,465.6521739130435L200,504.9L300,504.9L400,504.9L500,510L600,510L700,290.70000000000005L800,510" style="opacity: 0.2;"></path><path class="line" fill="none" stroke="#234099" d="M0,510L100,88.6956521739132L200,510L300,510L400,510L500,510L600,489.6L700,504.9L800,510" style="opacity: 0.2;"></path><path class="line" fill="none" stroke="#714213" d="M0,255L100,243.913043478261L200,510L300,510L400,433.5L500,510L600,510L700,510L800,510" style="opacity: 0.2;"></path><path class="line" fill="none" stroke="#714213" d="M0,510L100,332.608695652174L200,494.7L300,494.7L400,387.6L500,510L600,510L700,510L800,510" style="opacity: 0.2;"></path><path class="line" fill="none" stroke="#714213" d="M0,255L100,243.913043478261L200,510L300,510L400,433.5L500,510L600,510L700,510L800,510" style="opacity: 0.2;"></path><path class="line" fill="none" stroke="#234099" d="M0,510L100,399.13043478260875L200,504.9L300,504.9L400,489.6L500,510L600,510L700,510L800,510" style="opacity: 0.2;"></path><path class="line" fill="none" stroke="#E3E01E" d="M0,510L100,376.9565217391305L200,474.3L300,474.3L400,489.6L500,510L600,510L700,510L800,510" style="opacity: 0.2;"></path><path class="line" fill="none" stroke="#234099" d="M0,510L100,399.13043478260875L200,504.9L300,504.9L400,510L500,510L600,510L700,504.9L800,510" style="opacity: 0.2;"></path><path class="line" fill="none" stroke="#234099" d="M0,510L100,88.6956521739132L200,504.9L300,504.9L400,510L500,510L600,510L700,489.6L800,510" style="opacity: 0.2;"></path><path class="line" fill="none" stroke="#20B818" d="M0,510L100,399.13043478260875L200,382.5L300,382.5L400,504.9L500,510L600,499.8L700,510L800,510" style="opacity: 0.2;"></path><path class="line" fill="none" stroke="#E3E01E" d="M0,510L100,399.13043478260875L200,489.6L300,489.6L400,494.7L500,510L600,510L700,510L800,510" style="opacity: 0.2;"></path><path class="line" fill="none" stroke="#B9186D" d="M0,255L100,376.9565217391305L200,504.9L300,504.9L400,127.5L500,510L600,510L700,510L800,510" style="opacity: 0.2;"></path><path class="line" fill="none" stroke="#000" d="M0,510L100,88.6956521739132L200,408L300,408L400,423.3L500,510L600,510L700,504.9L800,510" style="opacity: 0.2;"></path><path class="line" fill="none" stroke="#234099" d="M0,510L100,399.13043478260875L200,510L300,510L400,510L500,510L600,504.9L700,504.9L800,504.9" style="opacity: 0.2;"></path><path class="line" fill="none" stroke="#E3E01E" d="M0,510L100,44.34782608695667L200,428.4L300,428.4L400,459L500,499.8L600,510L700,510L800,510" style="opacity: 0.2;"></path><path class="line" fill="none" stroke="#E3E01E" d="M0,510L100,399.13043478260875L200,484.5L300,484.5L400,499.8L500,510L600,510L700,510L800,510" style="opacity: 0.2;"></path><path class="line" fill="none" stroke="#234099" d="M0,0L100,376.9565217391305L200,504.9L300,504.9L400,489.6L500,453.9L600,510L700,510L800,510" style="opacity: 0.2;"></path><path class="line" fill="none" stroke="#234099" d="M0,510L100,399.13043478260875L200,510L300,510L400,510L500,510L600,510L700,448.8L800,510" style="opacity: 0.2;"></path><path class="line" fill="none" stroke="#E3E01E" d="M0,510L100,332.608695652174L200,474.3L300,474.3L400,510L500,510L600,499.8L700,510L800,510" style="opacity: 0.2;"></path><path class="line" fill="none" stroke="#E3E01E" d="M0,510L100,399.13043478260875L200,453.9L300,453.9L400,494.7L500,510L600,510L700,510L800,510" style="opacity: 0.2;"></path><path class="line" fill="none" stroke="#234099" d="M0,510L100,399.13043478260875L200,510L300,510L400,510L500,510L600,510L700,443.7L800,510" style="opacity: 0.2;"></path><path class="line" fill="none" stroke="#234099" d="M0,255L100,177.39130434782624L200,504.9L300,504.9L400,484.5L500,504.9L600,510L700,510L800,510" style="opacity: 0.2;"></path><path class="line" fill="none" stroke="#E3E01E" d="M0,510L100,399.13043478260875L200,464.1L300,464.1L400,489.6L500,510L600,510L700,510L800,510" style="opacity: 0.2;"></path><path class="line" fill="none" stroke="#234099" d="M0,510L100,399.13043478260875L200,499.8L300,499.8L400,504.9L500,423.3L600,510L700,510L800,510" style="opacity: 0.2;"></path><path class="line" fill="none" stroke="#E3E01E" d="M0,510L100,177.39130434782624L200,453.9L300,453.9L400,510L500,510L600,499.8L700,510L800,510" style="opacity: 0.2;"></path><path class="line" fill="none" stroke="#E3E01E" d="M0,0L100,266.08695652173924L200,479.4L300,479.4L400,504.9L500,504.9L600,504.9L700,510L800,510" style="opacity: 0.2;"></path><path class="line" fill="none" stroke="#234099" d="M0,255L100,399.13043478260875L200,510L300,510L400,499.8L500,499.8L600,510L700,510L800,510" style="opacity: 0.2;"></path><path class="line" fill="none" stroke="#E3E01E" d="M0,510L100,177.39130434782624L200,428.4L300,428.4L400,504.9L500,510L600,499.8L700,510L800,510" style="opacity: 0.2;"></path><path class="line" fill="none" stroke="#714213" d="M0,510L100,332.608695652174L200,499.8L300,499.8L400,459L500,510L600,510L700,510L800,510" style="opacity: 0.2;"></path><path class="line" fill="none" stroke="#E3E01E" d="M0,255L100,177.39130434782624L200,494.7L300,494.7L400,484.5L500,510L600,510L700,510L800,510" style="opacity: 0.2;"></path><path class="line" fill="none" stroke="#E3E01E" d="M0,510L100,332.608695652174L200,464.1L300,464.1L400,504.9L500,510L600,504.9L700,510L800,510" style="opacity: 0.2;"></path><path class="line" fill="none" stroke="#714213" d="M0,255L100,443.47826086956525L200,464.1L300,464.1L400,453.9L500,510L600,510L700,510L800,510" style="opacity: 0.2;"></path><path class="line" fill="none" stroke="#B9186D" d="M0,510L100,376.9565217391305L200,510L300,510L400,61.19999999999999L500,510L600,510L700,510L800,510" style="opacity: 0.2;"></path><path class="line" fill="none" stroke="#000" d="M0,510L100,376.9565217391305L200,464.1L300,464.1L400,474.3L500,510L600,510L700,504.9L800,510" style="opacity: 0.2;"></path><path class="line" fill="none" stroke="#B9186D" d="M0,510L100,177.39130434782624L200,504.9L300,504.9L400,255L500,510L600,510L700,510L800,510" style="opacity: 0.2;"></path><path class="line" fill="none" stroke="#E3E01E" d="M0,510L100,177.39130434782624L200,448.8L300,448.8L400,510L500,510L600,494.7L700,510L800,510" style="opacity: 0.2;"></path><path class="line" fill="none" stroke="#234099" d="M0,510L100,399.13043478260875L200,510L300,510L400,510L500,510L600,510L700,453.9L800,510" style="opacity: 0.2;"></path><path class="line" fill="none" stroke="#E3E01E" d="M0,510L100,177.39130434782624L200,453.9L300,453.9L400,499.8L500,510L600,510L700,510L800,510" style="opacity: 0.2;"></path><path class="line" fill="none" stroke="#E3E01E" d="M0,0L100,443.47826086956525L200,392.7L300,392.7L400,443.7L500,510L600,510L700,510L800,510" style="opacity: 0.2;"></path><path class="line" fill="none" stroke="#000" d="M0,510L100,354.78260869565224L200,474.3L300,474.3L400,510L500,510L600,504.9L700,510L800,510" style="opacity: 0.2;"></path><path class="line" fill="none" stroke="#234099" d="M0,255L100,332.608695652174L200,499.8L300,499.8L400,510L500,510L600,494.7L700,510L800,510" style="opacity: 0.2;"></path><path class="line" fill="none" stroke="#B9186D" d="M0,510L100,310.43478260869574L200,499.8L300,499.8L400,316.2L500,510L600,510L700,510L800,510" style="opacity: 0.2;"></path><path class="line" fill="none" stroke="#E3E01E" d="M0,510L100,310.43478260869574L200,433.5L300,433.5L400,510L500,510L600,499.8L700,510L800,510" style="opacity: 0.2;"></path><path class="line" fill="none" stroke="#20B818" d="M0,510L100,310.43478260869574L200,316.2L300,316.2L400,260.1L500,504.9L600,510L700,510L800,510" style="opacity: 0.2;"></path><path class="line" fill="none" stroke="#000" d="M0,510L100,310.43478260869574L200,494.7L300,494.7L400,510L500,510L600,489.6L700,0L800,510" style="opacity: 0.2;"></path><path class="line" fill="none" stroke="#20B818" d="M0,510L100,310.43478260869574L200,382.5L300,382.5L400,504.9L500,510L600,504.9L700,510L800,510" style="opacity: 0.2;"></path><path class="line" fill="none" stroke="#E3E01E" d="M0,510L100,310.43478260869574L200,433.5L300,433.5L400,494.7L500,510L600,510L700,510L800,510" style="opacity: 0.2;"></path><path class="line" fill="none" stroke="#000" d="M0,255L100,22.17391304347841L200,469.2L300,469.2L400,510L500,510L600,499.8L700,504.9L800,510" style="opacity: 0.2;"></path><path class="line" fill="none" stroke="#714213" d="M0,510L100,22.17391304347841L200,510L300,510L400,479.4L500,504.9L600,510L700,510L800,510" style="opacity: 0.2;"></path><path class="line" fill="none" stroke="#234099" d="M0,510L100,399.13043478260875L200,499.8L300,499.8L400,510L500,510L600,469.2L700,499.8L800,510" style="opacity: 0.2;"></path><path class="line" fill="none" stroke="#E3E01E" d="M0,510L100,177.39130434782624L200,438.6L300,438.6L400,510L500,510L600,499.8L700,510L800,510" style="opacity: 0.2;"></path><path class="line" fill="none" stroke="#234099" d="M0,510L100,399.13043478260875L200,504.9L300,504.9L400,510L500,499.8L600,510L700,510L800,510" style="opacity: 0.2;"></path><path class="line" fill="none" stroke="#E3E01E" d="M0,510L100,22.17391304347841L200,428.4L300,428.4L400,510L500,504.9L600,499.8L700,510L800,510" style="opacity: 0.2;"></path><path class="line" fill="none" stroke="#714213" d="M0,510L100,66.52173913043494L200,494.7L300,494.7L400,474.3L500,510L600,510L700,510L800,510" style="opacity: 0.2;"></path><path class="line" fill="none" stroke="#000" d="M0,510L100,22.17391304347841L200,469.2L300,469.2L400,504.9L500,510L600,504.9L700,433.5L800,510" style="opacity: 0.2;"></path><path class="line" fill="none" stroke="#E3E01E" d="M0,0L100,354.78260869565224L200,469.2L300,469.2L400,499.8L500,510L600,510L700,510L800,510" style="opacity: 0.2;"></path><path class="line" fill="none" stroke="#E3E01E" d="M0,0L100,22.17391304347841L200,479.4L300,479.4L400,510L500,510L600,489.6L700,510L800,510" style="opacity: 0.2;"></path><path class="line" fill="none" stroke="#E3E01E" d="M0,255L100,177.39130434782624L200,479.4L300,479.4L400,510L500,510L600,499.8L700,510L800,510" style="opacity: 0.2;"></path><path class="line" fill="none" stroke="#E3E01E" d="M0,510L100,22.17391304347841L200,438.6L300,438.6L400,494.7L500,504.9L600,510L700,510L800,510" style="opacity: 0.2;"></path><path class="line" fill="none" stroke="#E3E01E" d="M0,510L100,510L200,433.5L300,433.5L400,484.5L500,504.9L600,510L700,510L800,510" style="opacity: 0.2;"></path><path class="line" fill="none" stroke="#E3E01E" d="M0,510L100,399.13043478260875L200,484.5L300,484.5L400,494.7L500,510L600,510L700,510L800,510" style="opacity: 0.2;"></path><path class="line" fill="none" stroke="#E3E01E" d="M0,510L100,0L200,443.7L300,443.7L400,453.9L500,499.8L600,510L700,510L800,510" style="opacity: 0.2;"></path><path class="line" fill="none" stroke="#E3E01E" d="M0,510L100,177.39130434782624L200,459L300,459L400,510L500,510L600,504.9L700,510L800,510" style="opacity: 0.2;"></path><path class="line" fill="none" stroke="#E3E01E" d="M0,510L100,177.39130434782624L200,474.3L300,474.3L400,510L500,510L600,499.8L700,510L800,510" style="opacity: 0.2;"></path><path class="line" fill="none" stroke="#B9186D" d="M0,255L100,22.17391304347841L200,494.7L300,494.7L400,295.8L500,510L600,510L700,510L800,510" style="opacity: 0.2;"></path><path class="line" fill="none" stroke="#E3E01E" d="M0,510L100,22.17391304347841L200,418.2L300,418.2L400,510L500,510L600,499.8L700,510L800,510" style="opacity: 0.2;"></path><path class="line" fill="none" stroke="#234099" d="M0,510L100,22.17391304347841L200,499.8L300,499.8L400,484.5L500,504.9L600,510L700,510L800,510" style="opacity: 0.2;"></path><path class="line" fill="none" stroke="#234099" d="M0,0L100,376.9565217391305L200,504.9L300,504.9L400,510L500,510L600,499.8L700,504.9L800,510" style="opacity: 0.2;"></path><path class="line" fill="none" stroke="#E3E01E" d="M0,255L100,22.17391304347841L200,484.5L300,484.5L400,510L500,510L600,494.7L700,510L800,510" style="opacity: 0.2;"></path><path class="line" fill="none" stroke="#E3E01E" d="M0,510L100,22.17391304347841L200,443.7L300,443.7L400,510L500,510L600,499.8L700,510L800,510" style="opacity: 0.2;"></path><path class="line" fill="none" stroke="#234099" d="M0,255L100,22.17391304347841L200,499.8L300,499.8L400,510L500,510L600,484.5L700,499.8L800,510" style="opacity: 0.2;"></path><path class="line" fill="none" stroke="#E3E01E" d="M0,255L100,177.39130434782624L200,459L300,459L400,504.9L500,510L600,504.9L700,510L800,510" style="opacity: 0.2;"></path><path class="line" fill="none" stroke="#B9186D" d="M0,255L100,22.17391304347841L200,499.8L300,499.8L400,295.8L500,510L600,510L700,510L800,510" style="opacity: 0.2;"></path><path class="line" fill="none" stroke="#714213" d="M0,510L100,22.17391304347841L200,504.9L300,504.9L400,397.8L500,489.6L600,510L700,510L800,510" style="opacity: 0.2;"></path><path class="line" fill="none" stroke="#714213" d="M0,510L100,399.13043478260875L200,510L300,510L400,377.4L500,510L600,510L700,510L800,510" style="opacity: 0.2;"></path><path class="line" fill="none" stroke="#000" d="M0,510L100,332.608695652174L200,484.5L300,484.5L400,479.4L500,510L600,510L700,510L800,510" style="opacity: 0.2;"></path><path class="line" fill="none" stroke="#E3E01E" d="M0,255L100,22.17391304347841L200,418.2L300,418.2L400,510L500,510L600,479.4L700,510L800,510" style="opacity: 0.2;"></path><path class="line" fill="none" stroke="#E3E01E" d="M0,510L100,376.9565217391305L200,443.7L300,443.7L400,504.9L500,510L600,504.9L700,510L800,510" style="opacity: 0.2;"></path><path class="line" fill="none" stroke="#234099" d="M0,510L100,22.17391304347841L200,499.8L300,499.8L400,510L500,510L600,510L700,494.7L800,510" style="opacity: 0.2;"></path><path class="line" fill="none" stroke="#000" d="M0,510L100,22.17391304347841L200,428.4L300,428.4L400,504.9L500,510L600,504.9L700,504.9L800,510" style="opacity: 0.2;"></path><path class="line" fill="none" stroke="#000" d="M0,255L100,376.9565217391305L200,438.6L300,438.6L400,510L500,510L600,453.9L700,510L800,510" style="opacity: 0.2;"></path><path class="line" fill="none" stroke="#000" d="M0,510L100,376.9565217391305L200,428.4L300,428.4L400,499.8L500,510L600,504.9L700,510L800,510" style="opacity: 0.2;"></path><path class="line" fill="none" stroke="#714213" d="M0,510L100,22.17391304347841L200,484.5L300,484.5L400,423.3L500,510L600,510L700,510L800,510" style="opacity: 0.2;"></path><path class="line" fill="none" stroke="#E3E01E" d="M0,510L100,22.17391304347841L200,408L300,408L400,499.8L500,510L600,504.9L700,510L800,510" style="opacity: 0.2;"></path><path class="line" fill="none" stroke="#000" d="M0,510L100,332.608695652174L200,494.7L300,494.7L400,489.6L500,510L600,510L700,510L800,510" style="opacity: 0.2;"></path><path class="line" fill="none" stroke="#234099" d="M0,255L100,22.17391304347841L200,499.8L300,499.8L400,510L500,510L600,510L700,499.8L800,510" style="opacity: 0.2;"></path><path class="line" fill="none" stroke="#B9186D" d="M0,255L100,376.9565217391305L200,504.9L300,504.9L400,331.5L500,510L600,510L700,510L800,510" style="opacity: 0.2;"></path><path class="line" fill="none" stroke="#234099" d="M0,510L100,376.9565217391305L200,494.7L300,494.7L400,510L500,510L600,504.9L700,499.8L800,510" style="opacity: 0.2;"></path><path class="line" fill="none" stroke="#E3E01E" d="M0,510L100,177.39130434782624L200,484.5L300,484.5L400,510L500,510L600,504.9L700,510L800,510" style="opacity: 0.2;"></path><path class="line" fill="none" stroke="#714213" d="M0,255L100,243.913043478261L200,510L300,510L400,474.3L500,510L600,510L700,510L800,510" style="opacity: 0.2;"></path><path class="line" fill="none" stroke="#E3E01E" d="M0,510L100,177.39130434782624L200,494.7L300,494.7L400,510L500,510L600,392.7L700,510L800,510" style="opacity: 0.2;"></path><path class="line" fill="none" stroke="#B9186D" d="M0,255L100,177.39130434782624L200,504.9L300,504.9L400,255L500,510L600,510L700,510L800,510" style="opacity: 0.2;"></path><path class="line" fill="none" stroke="#714213" d="M0,510L100,243.913043478261L200,510L300,510L400,418.2L500,510L600,510L700,510L800,510" style="opacity: 0.2;"></path><path class="line" fill="none" stroke="#234099" d="M0,510L100,177.39130434782624L200,504.9L300,504.9L400,510L500,510L600,510L700,397.8L800,510" style="opacity: 0.2;"></path><path class="line" fill="none" stroke="#234099" d="M0,510L100,399.13043478260875L200,510L300,510L400,510L500,510L600,510L700,433.5L800,510" style="opacity: 0.2;"></path><path class="line" fill="none" stroke="#20B818" d="M0,255L100,22.17391304347841L200,265.20000000000005L300,265.20000000000005L400,510L500,510L600,377.4L700,510L800,510" style="opacity: 0.2;"></path><path class="line" fill="none" stroke="#234099" d="M0,255L100,177.39130434782624L200,504.9L300,504.9L400,510L500,510L600,510L700,392.7L800,510" style="opacity: 0.2;"></path><path class="line" fill="none" stroke="#714213" d="M0,510L100,177.39130434782624L200,489.6L300,489.6L400,453.9L500,510L600,510L700,510L800,510" style="opacity: 0.2;"></path><path class="line" fill="none" stroke="#B9186D" d="M0,255L100,177.39130434782624L200,504.9L300,504.9L400,183.59999999999997L500,448.8L600,510L700,510L800,510" style="opacity: 0.2;"></path><path class="line" fill="none" stroke="#20B818" d="M0,255L100,177.39130434782624L200,306L300,306L400,499.8L500,504.9L600,504.9L700,510L800,510" style="opacity: 0.2;"></path><path class="line" fill="none" stroke="#000" d="M0,255L100,177.39130434782624L200,479.4L300,479.4L400,510L500,510L600,453.9L700,510L800,510" style="opacity: 0.2;"></path><path class="line" fill="none" stroke="#B9186D" d="M0,255L100,177.39130434782624L200,504.9L300,504.9L400,249.89999999999998L500,510L600,510L700,510L800,510" style="opacity: 0.2;"></path><path class="line" fill="none" stroke="#B9186D" d="M0,510L100,177.39130434782624L200,510L300,510L400,153L500,510L600,510L700,510L800,510" style="opacity: 0.2;"></path><path class="line" fill="none" stroke="#B9186D" d="M0,510L100,177.39130434782624L200,510L300,510L400,224.39999999999998L500,459L600,510L700,510L800,510" style="opacity: 0.2;"></path><path class="line" fill="none" stroke="#E3E01E" d="M0,255L100,177.39130434782624L200,474.3L300,474.3L400,510L500,510L600,479.4L700,510L800,510" style="opacity: 0.2;"></path><path class="line" fill="none" stroke="#714213" d="M0,255L100,177.39130434782624L200,499.8L300,499.8L400,408L500,510L600,510L700,510L800,510" style="opacity: 0.2;"></path><path class="line" fill="none" stroke="#714213" d="M0,510L100,399.13043478260875L200,499.8L300,499.8L400,464.1L500,510L600,510L700,510L800,510" style="opacity: 0.2;"></path><path class="line" fill="none" stroke="#ff4d00" d="M0,510L100,332.608695652174L200,178.5L300,178.5L400,504.9L500,510L600,489.6L700,510L800,510" style="opacity: 1;"></path><path class="line" fill="none" stroke="#714213" d="M0,255L100,376.9565217391305L200,499.8L300,499.8L400,474.3L500,510L600,510L700,510L800,510" style="opacity: 0.2;"></path><path class="line" fill="none" stroke="#714213" d="M0,510L100,288.2608695652175L200,499.8L300,499.8L400,459L500,510L600,510L700,510L800,510" style="opacity: 0.2;"></path><path class="line" fill="none" stroke="#20B818" d="M0,510L100,332.608695652174L200,382.5L300,382.5L400,428.4L500,510L600,510L700,510L800,510" style="opacity: 0.2;"></path><path class="line" fill="none" stroke="#20B818" d="M0,510L100,376.9565217391305L200,265.20000000000005L300,265.20000000000005L400,510L500,510L600,474.3L700,510L800,510" style="opacity: 0.2;"></path><path class="line" fill="none" stroke="#E3E01E" d="M0,510L100,22.17391304347841L200,428.4L300,428.4L400,504.9L500,510L600,504.9L700,510L800,510" style="opacity: 0.2;"></path><path class="line" fill="none" stroke="#234099" d="M0,510L100,465.6521739130435L200,510L300,510L400,510L500,504.9L600,510L700,510L800,510" style="opacity: 0.2;"></path><path class="line" fill="none" stroke="#B9186D" d="M0,255L100,177.39130434782624L200,504.9L300,504.9L400,316.2L500,510L600,510L700,510L800,510" style="opacity: 0.2;"></path><path class="line" fill="none" stroke="#714213" d="M0,255L100,376.9565217391305L200,499.8L300,499.8L400,448.8L500,510L600,510L700,510L800,510" style="opacity: 0.2;"></path><path class="line" fill="none" stroke="#714213" d="M0,510L100,243.913043478261L200,494.7L300,494.7L400,469.2L500,510L600,510L700,510L800,510" style="opacity: 0.2;"></path><path class="line" fill="none" stroke="#E3E01E" d="M0,255L100,177.39130434782624L200,489.6L300,489.6L400,510L500,510L600,494.7L700,510L800,510" style="opacity: 0.2;"></path><path class="line" fill="none" stroke="#E3E01E" d="M0,0L100,266.08695652173924L200,479.4L300,479.4L400,489.6L500,510L600,510L700,510L800,510" style="opacity: 0.2;"></path><path class="line" fill="none" stroke="#000" d="M0,510L100,332.608695652174L200,474.3L300,474.3L400,510L500,510L600,443.7L700,494.7L800,510" style="opacity: 0.2;"></path><path class="line" fill="none" stroke="#000" d="M0,0L100,22.17391304347841L200,469.2L300,469.2L400,510L500,510L600,474.3L700,504.9L800,510" style="opacity: 0.2;"></path><path class="line" fill="none" stroke="#000" d="M0,510L100,332.608695652174L200,464.1L300,464.1L400,499.8L500,510L600,510L700,510L800,510" style="opacity: 0.2;"></path><path class="line" fill="none" stroke="#E3E01E" d="M0,255L100,22.17391304347841L200,459L300,459L400,510L500,510L600,489.6L700,510L800,510" style="opacity: 0.2;"></path><path class="line" fill="none" stroke="#000" d="M0,510L100,22.17391304347841L200,453.9L300,453.9L400,504.9L500,510L600,504.9L700,510L800,510" style="opacity: 0.2;"></path><path class="line" fill="none" stroke="#E3E01E" d="M0,255L100,22.17391304347841L200,448.8L300,448.8L400,504.9L500,510L600,504.9L700,510L800,510" style="opacity: 0.2;"></path><path class="line" fill="none" stroke="#E3E01E" d="M0,510L100,22.17391304347841L200,443.7L300,443.7L400,504.9L500,510L600,504.9L700,510L800,510" style="opacity: 0.2;"></path><path class="line" fill="none" stroke="#E3E01E" d="M0,255L100,177.39130434782624L200,438.6L300,438.6L400,510L500,510L600,479.4L700,510L800,510" style="opacity: 0.2;"></path><path class="line" fill="none" stroke="#714213" d="M0,510L100,310.43478260869574L200,433.5L300,433.5L400,357L500,510L600,510L700,510L800,510" style="opacity: 0.2;"></path><path class="line" fill="none" stroke="#E3E01E" d="M0,510L100,443.47826086956525L200,423.3L300,423.3L400,494.7L500,510L600,510L700,510L800,510" style="opacity: 0.2;"></path><path class="line" fill="none" stroke="#E3E01E" d="M0,510L100,22.17391304347841L200,418.2L300,418.2L400,504.9L500,510L600,499.8L700,510L800,510" style="opacity: 0.2;"></path><path class="line" fill="none" stroke="#E3E01E" d="M0,510L100,177.39130434782624L200,408L300,408L400,510L500,510L600,499.8L700,510L800,510" style="opacity: 0.2;"></path><path class="line" fill="none" stroke="#E3E01E" d="M0,510L100,443.47826086956525L200,402.9L300,402.9L400,510L500,510L600,499.8L700,510L800,510" style="opacity: 0.2;"></path><path class="line" fill="none" stroke="#E3E01E" d="M0,510L100,22.17391304347841L200,392.7L300,392.7L400,499.8L500,510L600,504.9L700,510L800,510" style="opacity: 0.2;"></path><path class="line" fill="none" stroke="#20B818" d="M0,510L100,22.17391304347841L200,387.6L300,387.6L400,510L500,510L600,484.5L700,510L800,510" style="opacity: 0.2;"></path><path class="line" fill="none" stroke="#20B818" d="M0,0L100,22.17391304347841L200,367.2L300,367.2L400,499.8L500,510L600,504.9L700,510L800,510" style="opacity: 0.2;"></path><path class="line" fill="none" stroke="#20B818" d="M0,255L100,22.17391304347841L200,362.1L300,362.1L400,510L500,510L600,423.3L700,510L800,510" style="opacity: 0.2;"></path><path class="line" fill="none" stroke="#20B818" d="M0,510L100,22.17391304347841L200,351.9L300,351.9L400,504.9L500,510L600,494.7L700,510L800,510" style="opacity: 0.2;"></path><path class="line" fill="none" stroke="#20B818" d="M0,510L100,332.608695652174L200,341.7L300,341.7L400,433.5L500,510L600,510L700,510L800,510" style="opacity: 0.2;"></path><path class="line" fill="none" stroke="#20B818" d="M0,510L100,354.78260869565224L200,346.79999999999995L300,346.79999999999995L400,510L500,510L600,484.5L700,510L800,510" style="opacity: 0.2;"></path><path class="line" fill="none" stroke="#B9186D" d="M0,255L100,199.5652173913045L200,504.9L300,504.9L400,0L500,510L600,510L700,510L800,510" style="opacity: 0.2;"></path><path class="line" fill="none" stroke="#234099" d="M0,0L100,421.304347826087L200,510L300,510L400,510L500,510L600,510L700,504.9L800,510" style="opacity: 0.2;"></path><path class="line" fill="none" stroke="#E3E01E" d="M0,0L100,177.39130434782624L200,484.5L300,484.5L400,510L500,510L600,464.1L700,510L800,510" style="opacity: 0.2;"></path><path class="line" fill="none" stroke="#ff4d00" d="M0,255L100,22.17391304347841L200,61.19999999999999L300,61.19999999999999L400,510L500,510L600,418.2L700,510L800,510" style="opacity: 1;"></path><path class="line" fill="none" stroke="#714213" d="M0,510L100,88.6956521739132L200,510L300,510L400,510L500,0L600,510L700,510L800,510" style="opacity: 0.2;"></path></g><g class="dimension" transform="translate(0, 0)"><g class="axis categorical" fill="none" font-size="10" font-family="sans-serif" text-anchor="end"><path class="domain" stroke="#000" d="M-6,510.5H0.5V0.5H-6"></path><g class="tick" opacity="1" transform="translate(0,510.5)"><line stroke="#000" x2="-6"></line><text fill="#000" x="-9" dy="0.32em">0</text></g><g class="tick" opacity="1" transform="translate(0,255.5)"><line stroke="#000" x2="-6"></line><text fill="#000" x="-9" dy="0.32em">0.5</text></g><g class="tick" opacity="1" transform="translate(0,0.5)"><line stroke="#000" x2="-6"></line><text fill="#000" x="-9" dy="0.32em">1</text></g><text fill="black" y="-9" style="text-anchor: middle;">property_type</text></g></g><g class="dimension" transform="translate(100, 0)"><g class="axis categorical" fill="none" font-size="10" font-family="sans-serif" text-anchor="end"><path class="domain" stroke="#000" d="M-6,510.5H0.5V0.5H-6"></path><g class="tick" opacity="1" transform="translate(0,510.5)"><line stroke="#000" x2="-6"></line><text fill="#000" x="-9" dy="0.32em">0</text></g><g class="tick" opacity="1" transform="translate(0,488.32608695652175)"><line stroke="#000" x2="-6"></line><text fill="#000" x="-9" dy="0.32em">0.04</text></g><g class="tick" opacity="1" transform="translate(0,466.1521739130435)"><line stroke="#000" x2="-6"></line><text fill="#000" x="-9" dy="0.32em">0.09</text></g><g class="tick" opacity="1" transform="translate(0,443.97826086956525)"><line stroke="#000" x2="-6"></line><text fill="#000" x="-9" dy="0.32em">0.13</text></g><g class="tick" opacity="1" transform="translate(0,421.804347826087)"><line stroke="#000" x2="-6"></line><text fill="#000" x="-9" dy="0.32em">0.17</text></g><g class="tick" opacity="1" transform="translate(0,399.63043478260875)"><line stroke="#000" x2="-6"></line><text fill="#000" x="-9" dy="0.32em">0.22</text></g><g class="tick" opacity="1" transform="translate(0,377.4565217391305)"><line stroke="#000" x2="-6"></line><text fill="#000" x="-9" dy="0.32em">0.26</text></g><g class="tick" opacity="1" transform="translate(0,355.28260869565224)"><line stroke="#000" x2="-6"></line><text fill="#000" x="-9" dy="0.32em">0.3</text></g><g class="tick" opacity="1" transform="translate(0,333.108695652174)"><line stroke="#000" x2="-6"></line><text fill="#000" x="-9" dy="0.32em">0.35</text></g><g class="tick" opacity="1" transform="translate(0,310.93478260869574)"><line stroke="#000" x2="-6"></line><text fill="#000" x="-9" dy="0.32em">0.39</text></g><g class="tick" opacity="1" transform="translate(0,288.7608695652175)"><line stroke="#000" x2="-6"></line><text fill="#000" x="-9" dy="0.32em">0.43</text></g><g class="tick" opacity="1" transform="translate(0,266.58695652173924)"><line stroke="#000" x2="-6"></line><text fill="#000" x="-9" dy="0.32em">0.48</text></g><g class="tick" opacity="1" transform="translate(0,244.413043478261)"><line stroke="#000" x2="-6"></line><text fill="#000" x="-9" dy="0.32em">0.52</text></g><g class="tick" opacity="1" transform="translate(0,222.23913043478274)"><line stroke="#000" x2="-6"></line><text fill="#000" x="-9" dy="0.32em">0.57</text></g><g class="tick" opacity="1" transform="translate(0,200.0652173913045)"><line stroke="#000" x2="-6"></line><text fill="#000" x="-9" dy="0.32em">0.61</text></g><g class="tick" opacity="1" transform="translate(0,177.89130434782624)"><line stroke="#000" x2="-6"></line><text fill="#000" x="-9" dy="0.32em">0.65</text></g><g class="tick" opacity="1" transform="translate(0,155.71739130434798)"><line stroke="#000" x2="-6"></line><text fill="#000" x="-9" dy="0.32em">0.7</text></g><g class="tick" opacity="1" transform="translate(0,133.54347826086973)"><line stroke="#000" x2="-6"></line><text fill="#000" x="-9" dy="0.32em">0.74</text></g><g class="tick" opacity="1" transform="translate(0,111.36956521739147)"><line stroke="#000" x2="-6"></line><text fill="#000" x="-9" dy="0.32em">0.78</text></g><g class="tick" opacity="1" transform="translate(0,89.1956521739132)"><line stroke="#000" x2="-6"></line><text fill="#000" x="-9" dy="0.32em">0.83</text></g><g class="tick" opacity="1" transform="translate(0,67.02173913043494)"><line stroke="#000" x2="-6"></line><text fill="#000" x="-9" dy="0.32em">0.87</text></g><g class="tick" opacity="1" transform="translate(0,44.84782608695667)"><line stroke="#000" x2="-6"></line><text fill="#000" x="-9" dy="0.32em">0.91</text></g><g class="tick" opacity="1" transform="translate(0,22.67391304347841)"><line stroke="#000" x2="-6"></line><text fill="#000" x="-9" dy="0.32em">0.96</text></g><g class="tick" opacity="1" transform="translate(0,0.5)"><line stroke="#000" x2="-6"></line><text fill="#000" x="-9" dy="0.32em">1</text></g><text fill="black" y="-9" style="text-anchor: middle;">state_name</text></g></g><g class="dimension" transform="translate(200, 0)"><g class="axis" fill="none" font-size="10" font-family="sans-serif" text-anchor="end"><path class="domain" stroke="#000" d="M-6,510.5H0.5V0.5H-6"></path><g class="tick" opacity="1" transform="translate(0,510.5)"><line stroke="#000" x2="-6"></line><text fill="#000" x="-9" dy="0.32em">0.0</text></g><g class="tick" opacity="1" transform="translate(0,0.5)"><line stroke="#000" x2="-6"></line><text fill="#000" x="-9" dy="0.32em">1.0</text></g><text fill="black" y="-9" style="text-anchor: middle;">price_aprox_local_currency</text></g></g><g class="dimension" transform="translate(300, 0)"><g class="axis" fill="none" font-size="10" font-family="sans-serif" text-anchor="end"><path class="domain" stroke="#000" d="M-6,510.5H0.5V0.5H-6"></path><g class="tick" opacity="1" transform="translate(0,510.5)"><line stroke="#000" x2="-6"></line><text fill="#000" x="-9" dy="0.32em">0.0</text></g><g class="tick" opacity="1" transform="translate(0,0.5)"><line stroke="#000" x2="-6"></line><text fill="#000" x="-9" dy="0.32em">1.0</text></g><text fill="black" y="-9" style="text-anchor: middle;">price_aprox_usd</text></g></g><g class="dimension" transform="translate(400, 0)"><g class="axis" fill="none" font-size="10" font-family="sans-serif" text-anchor="end"><path class="domain" stroke="#000" d="M-6,510.5H0.5V0.5H-6"></path><g class="tick" opacity="1" transform="translate(0,510.5)"><line stroke="#000" x2="-6"></line><text fill="#000" x="-9" dy="0.32em">0.0</text></g><g class="tick" opacity="1" transform="translate(0,0.5)"><line stroke="#000" x2="-6"></line><text fill="#000" x="-9" dy="0.32em">1.0</text></g><text fill="black" y="-9" style="text-anchor: middle;">surface_total_in_m2</text></g></g><g class="dimension" transform="translate(500, 0)"><g class="axis" fill="none" font-size="10" font-family="sans-serif" text-anchor="end"><path class="domain" stroke="#000" d="M-6,510.5H0.5V0.5H-6"></path><g class="tick" opacity="1" transform="translate(0,510.5)"><line stroke="#000" x2="-6"></line><text fill="#000" x="-9" dy="0.32em">0.0</text></g><g class="tick" opacity="1" transform="translate(0,0.5)"><line stroke="#000" x2="-6"></line><text fill="#000" x="-9" dy="0.32em">1.0</text></g><text fill="black" y="-9" style="text-anchor: middle;">surface_covered_in_m2</text></g></g><g class="dimension" transform="translate(600, 0)"><g class="axis" fill="none" font-size="10" font-family="sans-serif" text-anchor="end"><path class="domain" stroke="#000" d="M-6,510.5H0.5V0.5H-6"></path><g class="tick" opacity="1" transform="translate(0,510.5)"><line stroke="#000" x2="-6"></line><text fill="#000" x="-9" dy="0.32em">0.0</text></g><g class="tick" opacity="1" transform="translate(0,0.5)"><line stroke="#000" x2="-6"></line><text fill="#000" x="-9" dy="0.32em">1.0</text></g><text fill="black" y="-9" style="text-anchor: middle;">price_usd_per_m2</text></g></g><g class="dimension" transform="translate(700, 0)"><g class="axis" fill="none" font-size="10" font-family="sans-serif" text-anchor="end"><path class="domain" stroke="#000" d="M-6,510.5H0.5V0.5H-6"></path><g class="tick" opacity="1" transform="translate(0,510.5)"><line stroke="#000" x2="-6"></line><text fill="#000" x="-9" dy="0.32em">0.0</text></g><g class="tick" opacity="1" transform="translate(0,0.5)"><line stroke="#000" x2="-6"></line><text fill="#000" x="-9" dy="0.32em">1.0</text></g><text fill="black" y="-9" style="text-anchor: middle;">price_per_m2</text></g></g><g class="dimension" transform="translate(800, 0)"><g class="axis" fill="none" font-size="10" font-family="sans-serif" text-anchor="end"><path class="domain" stroke="#000" d="M-6,510.5H0.5V0.5H-6"></path><g class="tick" opacity="1" transform="translate(0,510.5)"><line stroke="#000" x2="-6"></line><text fill="#000" x="-9" dy="0.32em">1</text></g><g class="tick" opacity="1" transform="translate(0,0.5)"><line stroke="#000" x2="-6"></line><text fill="#000" x="-9" dy="0.32em">38,177</text></g><text fill="black" y="-9" style="text-anchor: middle;">members_count</text></g></g></g><g class="legend" style="width: 124px; height: 144px; transform: translate(1160px, 24px);"><rect style="fill: white; stroke: rgb(0, 0, 0); width: 124px; height: 162px; transform: translate(0px, 0px);"></rect><text style="fill: rgb(0, 0, 0); transform: translate(12px, 12px);">Cluster legend:</text><g class="cluster-label" style="width: 88px; height: 18px; transform: translate(12px, 18px);"><rect class="color-tag" style="height: 3px; width: 18px; transform: translate(0px, 7px); fill: rgb(35, 64, 153);"></rect><text class="cluster-name" style="fill: rgba(0, 0, 0, 0.95); height: 18px; line-height: 18px; font-size: 12px; transform: translate(23px, 12px);">Cluster 0</text></g><g class="cluster-label" style="width: 88px; height: 18px; transform: translate(12px, 36px);"><rect class="color-tag" style="height: 3px; width: 18px; transform: translate(0px, 7px); fill: rgb(227, 224, 30);"></rect><text class="cluster-name" style="fill: rgba(0, 0, 0, 0.95); height: 18px; line-height: 18px; font-size: 12px; transform: translate(23px, 12px);">Cluster 1</text></g><g class="cluster-label" style="width: 88px; height: 18px; transform: translate(12px, 54px);"><rect class="color-tag" style="height: 3px; width: 18px; transform: translate(0px, 7px); fill: rgb(32, 184, 24);"></rect><text class="cluster-name" style="fill: rgba(0, 0, 0, 0.95); height: 18px; line-height: 18px; font-size: 12px; transform: translate(23px, 12px);">Cluster 2</text></g><g class="cluster-label" style="width: 88px; height: 18px; transform: translate(12px, 72px);"><rect class="color-tag" style="height: 3px; width: 18px; transform: translate(0px, 7px); fill: rgb(185, 24, 109);"></rect><text class="cluster-name" style="fill: rgba(0, 0, 0, 0.95); height: 18px; line-height: 18px; font-size: 12px; transform: translate(23px, 12px);">Cluster 3</text></g><g class="cluster-label" style="width: 88px; height: 18px; transform: translate(12px, 90px);"><rect class="color-tag" style="height: 3px; width: 18px; transform: translate(0px, 7px); fill: rgb(113, 66, 19);"></rect><text class="cluster-name" style="fill: rgba(0, 0, 0, 0.95); height: 18px; line-height: 18px; font-size: 12px; transform: translate(23px, 12px);">Cluster 4</text></g><g class="cluster-label" style="width: 88px; height: 18px; transform: translate(12px, 108px);"><rect class="color-tag" style="height: 3px; width: 18px; transform: translate(0px, 7px); fill: rgb(0, 0, 0);"></rect><text class="cluster-name" style="fill: rgba(0, 0, 0, 0.95); height: 18px; line-height: 18px; font-size: 12px; transform: translate(23px, 12px);">Cluster 5</text></g><g class="cluster-label" style="width: 88px; height: 18px; transform: translate(12px, 126px);"><rect class="color-tag" style="height: 3px; width: 18px; transform: translate(0px, 7px); fill: rgb(255, 77, 0);"></rect><text class="cluster-name" style="fill: rgba(0, 0, 0, 0.95); height: 18px; line-height: 18px; font-size: 12px; transform: translate(23px, 12px);">Outliers</text></g></g></svg>