<?xml version="1.0" standalone="no"?>
<svg class="scatterplot" height="640" width="640" style="overflow: visible;" xmlns="http://www.w3.org/2000/svg"><g transform="translate(60, 60)" class="plot" style="font-family: Rajdhani, sans-serif;"><circle cx="5.2" cy="514.8" count="64752" r="9" fill="#234099" opacity="0.5"></circle><circle cx="36.400000000000006" cy="483.6" count="1055" r="2.2922817985219313" fill="#234099" opacity="0.5"></circle><circle cx="41.6" cy="478.4" count="184" r="2.0539727486956787" fill="#234099" opacity="0.5"></circle><circle cx="78" cy="442" count="60" r="2.017758446275639" fill="#234099" opacity="0.5"></circle><circle cx="88.4" cy="431.6" count="26" r="2.007714612170737" fill="#234099" opacity="0.5"></circle><circle cx="109.2" cy="410.8" count="5" r="2.001485888607026" fill="#234099" opacity="0.5"></circle><circle cx="124.8" cy="395.2" count="9" r="2.002673805722615" fill="#234099" opacity="0.5"></circle><circle cx="156" cy="364" count="3" r="2.000891665577083" fill="#234099" opacity="0.5"></circle><circle cx="166.4" cy="353.6" count="2" r="2.000594487875347" fill="#234099" opacity="0.5"></circle><circle cx="197.6" cy="322.4" count="1" r="2.000297266022881" fill="#234099" opacity="0.5"></circle><circle cx="208" cy="312" count="1" r="2.000297266022881" fill="#234099" opacity="0.5"></circle><circle cx="249.6" cy="270.4" count="2" r="2.000594487875347" fill="#234099" opacity="0.5"></circle><circle cx="338" cy="182" count="2" r="2.000594487875347" fill="#234099" opacity="0.5"></circle><circle cx="457.6" cy="62.39999999999998" count="2" r="2.000594487875347" fill="#234099" opacity="0.5"></circle><circle cx="520" cy="0" count="1" r="2.000297266022881" fill="#234099" opacity="0.5"></circle><g class="axis" transform="translate(0, 520)" fill="none" font-size="10" font-family="sans-serif" text-anchor="middle"><path class="domain" stroke="#000" d="M0.5,6V0.5H520.5V6"></path><g class="tick" opacity="1" transform="translate(0.5,0)"><line stroke="#000" y2="6"></line><text fill="#000" y="9" dy=".7em" text-anchor="middle" dx="" transform="">0.0</text></g><g class="tick" opacity="1" transform="translate(260.5,0)"><line stroke="#000" y2="6"></line><text fill="#000" y="9" dy=".7em" text-anchor="middle" dx="" transform="">0.5</text></g><g class="tick" opacity="1" transform="translate(520.5,0)"><line stroke="#000" y2="6"></line><text fill="#000" y="9" dy=".7em" text-anchor="middle" dx="" transform="">1.0</text></g></g><text transform="translate(260, 562.34375)" style="text-anchor: middle;">price_aprox_local_currency</text><g class="axis" fill="none" font-size="10" font-family="sans-serif" text-anchor="end"><path class="domain" stroke="#000" d="M-6,520.5H0.5V0.5H-6"></path><g class="tick" opacity="1" transform="translate(0,520.5)"><line stroke="#000" x2="-6"></line><text fill="#000" x="-9" dy="0.32em">0.0</text></g><g class="tick" opacity="1" transform="translate(0,260.5)"><line stroke="#000" x2="-6"></line><text fill="#000" x="-9" dy="0.32em">0.5</text></g><g class="tick" opacity="1" transform="translate(0,0.5)"><line stroke="#000" x2="-6"></line><text fill="#000" x="-9" dy="0.32em">1.0</text></g></g><text transform="rotate(-90)" x="-260" y="-40" style="text-anchor: middle;">price_aprox_usd</text></g></svg>