<?xml version="1.0" standalone="no"?>
<svg class="parallel-coordinate-plot radar-plot" height="800" width="1020" style="overflow: visible; margin-top: 20px;" xmlns="http://www.w3.org/2000/svg"><g><rect class="padding" height="640" width="860" fill="transparent"></rect></g><g transform="translate(80, 80)" class="plot" style="font-family: Rajdhani, sans-serif;"><circle r="240" cx="240" cy="240" fill="white" stroke="black"></circle><g><polygon class="axis" points="480,240 423.8506663485547,394.2690263247694 281.67556264006333,476.35386072292994 120.00000000000006,447.84609690826534 14.473771011382004,322.0848343981605 14.473771011381977,157.91516560183953 119.99999999999989,32.15390309173476 281.6755626400632,3.6461392770700485 423.8506663485547,85.7309736752305" fill="transparent" stroke="#000"></polygon><text class="var-label" x="495" y="240" fill="#000">property_type<title>property_type</title></text><text class="var-label" x="438.8506663485547" y="394.2690263247694" fill="#000">state_name<title>state_name</title></text><text class="var-label" x="296.67556264006333" y="476.35386072292994" fill="#000">price_aprox_local_currency<title>price_aprox_local_currency</title></text><text class="var-label" x="105.00000000000006" y="447.84609690826534" fill="#000" style="text-anchor: end;">price_aprox_usd<title>price_aprox_usd</title></text><text class="var-label" x="-0.526228988617996" y="322.0848343981605" fill="#000" style="text-anchor: end;">surface_total_in_m2<title>surface_total_in_m2</title></text><text class="var-label" x="-0.5262289886180227" y="157.91516560183953" fill="#000" style="text-anchor: end;">surface_covered_in_m2<title>surface_covered_in_m2</title></text><text class="var-label" x="104.99999999999989" y="32.15390309173476" fill="#000" style="text-anchor: end;">price_usd_per_m2<title>price_usd_per_m2</title></text><text class="var-label" x="296.6755626400632" y="3.6461392770700485" fill="#000">price_per_m2<title>price_per_m2</title></text><text class="var-label" x="438.8506663485547" y="85.7309736752305" fill="#000">members_count<title>members_count</title></text></g><g class="line-group"><path class="line" fill="none" stroke="#234099" d="M240,240L240,240L240.41675562640063,242.3635386072293L238.8,242.07846096908264L240,240L240,240L240,240L240,240L291.4781865775953,196.80467262906456L240,240" style="opacity: 0.2;"></path><path class="line" fill="none" stroke="#234099" d="M240,240L247.35402665394219,246.17076105299077L240.83351125280126,244.7270772144586L237.6,244.1569219381653L240,240L240,240L237.6,235.8430780618347L240.41675562640063,237.6364613927707L240,240L240,240" style="opacity: 0.2;"></path><path class="line" fill="none" stroke="#20B818" d="M240,240L256.5465599713699,253.88421236922926L250.41889066001582,299.0884651807325L210,291.9615242270663L240,240L240,240L223.2,210.90154643284288L242.91728938480443,223.4552297493949L240,240L240,240" style="opacity: 0.2;"></path><path class="line" fill="none" stroke="#234099" d="M240,240L247.35402665394219,246.17076105299077L240.83351125280126,244.7270772144586L237.6,244.1569219381653L240,240L240,240L240,240L240,240L249.19253331742775,232.28654868376154L240,240" style="opacity: 0.2;"></path><path class="line" fill="none" stroke="#E3E01E" d="M240,240L247.35402665394219,246.17076105299077L241.2502668792019,247.0906158216879L236.4,246.23538290724795L240,240L240,240L238.8,237.92153903091736L240,240L243.6770133269711,236.91461947350462L240,240" style="opacity: 0.2;"></path><path class="line" fill="none" stroke="#234099" d="M240,240L247.35402665394219,246.17076105299077L240.41675562640063,242.3635386072293L238.8,242.07846096908264L237.7447377101138,240.8208483439816L240,240L240,240L240,240L241.83850666348556,238.4573097367523L240,240" style="opacity: 0.2;"></path><path class="line" fill="none" stroke="#234099" d="M360,240L263.90058662531214,260.05497342222003L240.41675562640063,242.3635386072293L238.8,242.07846096908264L233.23421313034146,242.4625450319448L240,240L240,240L240,240L240,240L360,240" style="opacity: 0.2;"></path><path class="line" fill="none" stroke="#234099" d="M240,240L263.90058662531214,260.05497342222003L240.41675562640063,242.3635386072293L238.8,242.07846096908264L235.48947542022765,241.64169668796322L240,240L240,240L240,240L240,240L240,240" style="opacity: 0.2;"></path><path class="line" fill="none" stroke="#234099" d="M240,240L271.25461327925433,266.2257344752108L240.83351125280126,244.7270772144586L237.6,244.1569219381653L237.7447377101138,240.8208483439816L240,240L240,240L240,240L252.86954664439884,229.20116815726612L240,240" style="opacity: 0.2;"></path><path class="line" fill="none" stroke="#000" d="M240,240L247.35402665394219,246.17076105299077L242.91728938480443,256.5447702506051L231.6,254.54922678357858L240,240L240,240L230.39999999999998,223.37231224733878L241.2502668792019,232.9093841783121L240,240L240,240" style="opacity: 0.2;"></path><path class="line" fill="none" stroke="#234099" d="M240,240L271.25461327925433,266.2257344752108L240,240L240,240L237.7447377101138,240.8208483439816L240,240L240,240L240,240L251.03103998091328,230.74385842051385L240,240" style="opacity: 0.2;"></path><path class="line" fill="none" stroke="#234099" d="M240,240L280.44714659668205,273.9391857914493L240,240L240,240L240,240L240,240L237.6,235.8430780618347L240,240L240,240L240,240" style="opacity: 0.2;"></path><path class="line" fill="none" stroke="#234099" d="M240,240L287.80117325062423,280.10994684444006L240.83351125280126,244.7270772144586L237.6,244.1569219381653L226.46842626068292,244.92509006388963L240,240L240,240L240,240L240,240L240,240" style="opacity: 0.2;"></path><path class="line" fill="none" stroke="#234099" d="M240,240L271.25461327925433,266.2257344752108L241.2502668792019,247.0906158216879L236.4,246.23538290724795L237.7447377101138,240.8208483439816L240,240L240,240L240,240L241.83850666348556,238.4573097367523L240,240" style="opacity: 0.2;"></path><path class="line" fill="none" stroke="#714213" d="M240,240L295.1551999045664,286.28070789743083L243.7508006376057,261.2718474650637L229.20000000000002,258.7061487217439L215.19211481125203,249.02933178379766L237.7447377101138,239.1791516560184L240,240L240,240L240,240L240,240" style="opacity: 0.2;"></path><path class="line" fill="none" stroke="#E3E01E" d="M480,240L304.34773322199413,293.9941592136693L243.33404501120506,258.9083088578344L230.4,256.62768775266125L233.23421313034146,242.4625450319448L237.7447377101138,239.1791516560184L240,240L240,240L240,240L480,240" style="opacity: 0.2;"></path><path class="line" fill="none" stroke="#714213" d="M480,240L287.80117325062423,280.10994684444006L240,240L240,240L221.95790168091057,246.56678675185285L237.7447377101138,239.1791516560184L240,240L240,240L240,240L480,240" style="opacity: 0.2;"></path><path class="line" fill="none" stroke="#234099" d="M360,240L263.90058662531214,260.05497342222003L240.41675562640063,242.3635386072293L238.8,242.07846096908264L240,240L240,240L238.8,237.92153903091736L240,240L243.6770133269711,236.91461947350462L360,240" style="opacity: 0.2;"></path><path class="line" fill="none" stroke="#234099" d="M360,240L271.25461327925433,266.2257344752108L240.41675562640063,242.3635386072293L238.8,242.07846096908264L240,240L240,240L240,240L240,240L258.3850666348555,224.57309736752305L360,240" style="opacity: 0.2;"></path><path class="line" fill="none" stroke="#234099" d="M360,240L263.90058662531214,260.05497342222003L240.83351125280126,244.7270772144586L237.6,244.1569219381653L240,240L240,240L238.8,237.92153903091736L240,240L241.83850666348556,238.4573097367523L360,240" style="opacity: 0.2;"></path><path class="line" fill="none" stroke="#E3E01E" d="M240,240L263.90058662531214,260.05497342222003L241.66702250560255,249.4541544289172L235.2,248.31384387633062L240,240L240,240L238.8,237.92153903091736L240,240L241.83850666348556,238.4573097367523L240,240" style="opacity: 0.2;"></path><path class="line" fill="none" stroke="#234099" d="M240,240L271.25461327925433,266.2257344752108L240,240L240,240L230.97895084045527,243.2833933759264L240,240L240,240L240,240L240,240L240,240" style="opacity: 0.2;"></path><path class="line" fill="none" stroke="#E3E01E" d="M240,240L311.7017598759363,300.1649202666601L241.2502668792019,247.0906158216879L236.4,246.23538290724795L240,240L240,240L238.8,237.92153903091736L240,240L240,240L240,240" style="opacity: 0.2;"></path><path class="line" fill="none" stroke="#E3E01E" d="M360,240L263.90058662531214,260.05497342222003L241.2502668792019,247.0906158216879L236.4,246.23538290724795L235.48947542022765,241.64169668796322L240,240L240,240L240,240L240,240L360,240" style="opacity: 0.2;"></path><path class="line" fill="none" stroke="#E3E01E" d="M240,240L263.90058662531214,260.05497342222003L242.08377813200318,251.8176930361465L234,250.39230484541326L237.7447377101138,240.8208483439816L240,240L238.8,237.92153903091736L240,240L240,240L240,240" style="opacity: 0.2;"></path><path class="line" fill="none" stroke="#234099" d="M240,240L280.44714659668205,273.9391857914493L240,240L240,240L240,240L240,240L240,240L243.7508006376057,218.7281525349363L240,240L240,240" style="opacity: 0.2;"></path><path class="line" fill="none" stroke="#E3E01E" d="M240,240L263.90058662531214,260.05497342222003L241.66702250560255,249.4541544289172L235.2,248.31384387633062L240,240L240,240L235.2,231.68615612366938L240,240L240,240L240,240" style="opacity: 0.2;"></path><path class="line" fill="none" stroke="#E3E01E" d="M480,240L319.05578652987856,306.33568131965086L242.08377813200318,251.8176930361465L234,250.39230484541326L228.7236885505691,244.10424171990803L240,240L240,240L240,240L240,240L480,240" style="opacity: 0.2;"></path><path class="line" fill="none" stroke="#714213" d="M360,240L263.90058662531214,260.05497342222003L240.41675562640063,242.3635386072293L238.8,242.07846096908264L190.38422962250405,258.0586635675953L240,240L240,240L240,240L240,240L360,240" style="opacity: 0.2;"></path><path class="line" fill="none" stroke="#000" d="M240,240L263.90058662531214,260.05497342222003L242.08377813200318,251.8176930361465L234,250.39230484541326L240,240L240,240L238.8,237.92153903091736L240,240L240,240L240,240" style="opacity: 0.2;"></path><path class="line" fill="none" stroke="#234099" d="M240,240L263.90058662531214,260.05497342222003L240.41675562640063,242.3635386072293L238.8,242.07846096908264L228.7236885505691,244.10424171990803L240,240L240,240L240,240L240,240L240,240" style="opacity: 0.2;"></path><path class="line" fill="none" stroke="#234099" d="M360,240L263.90058662531214,260.05497342222003L240.83351125280126,244.7270772144586L237.6,244.1569219381653L230.97895084045527,243.2833933759264L240,240L240,240L240,240L240,240L360,240" style="opacity: 0.2;"></path><path class="line" fill="none" stroke="#714213" d="M360,240L263.90058662531214,260.05497342222003L240,240L240,240L194.8947542022764,256.4169668796321L240,240L240,240L240,240L240,240L360,240" style="opacity: 0.2;"></path><path class="line" fill="none" stroke="#E3E01E" d="M240,240L263.90058662531214,260.05497342222003L242.5005337584038,254.18123164337578L232.8,252.4707658144959L237.7447377101138,240.8208483439816L240,240L240,240L240,240L240,240L240,240" style="opacity: 0.2;"></path><path class="line" fill="none" stroke="#E3E01E" d="M240,240L263.90058662531214,260.05497342222003L246.2513343960095,275.4530791084395L222,271.1769145362398L237.7447377101138,240.8208483439816L240,240L238.8,237.92153903091736L240,240L240,240L240,240" style="opacity: 0.2;"></path><path class="line" fill="none" stroke="#E3E01E" d="M240,240L263.90058662531214,260.05497342222003L248.7518681544133,289.6343107518153L214.8,283.6476803507357L240,240L240,240L237.6,235.8430780618347L240,240L240,240L240,240" style="opacity: 0.2;"></path><path class="line" fill="none" stroke="#E3E01E" d="M240,240L263.90058662531214,260.05497342222003L241.66702250560255,249.4541544289172L235.2,248.31384387633062L237.7447377101138,240.8208483439816L240,240L240,240L240,240L240,240L240,240" style="opacity: 0.2;"></path><path class="line" fill="none" stroke="#E3E01E" d="M240,240L263.90058662531214,260.05497342222003L241.66702250560255,249.4541544289172L235.2,248.31384387633062L235.48947542022765,241.64169668796322L240,240L240,240L240,240L240,240L240,240" style="opacity: 0.2;"></path><path class="line" fill="none" stroke="#E3E01E" d="M240,240L263.90058662531214,260.05497342222003L247.08484564881076,280.1801563228981L219.60000000000002,275.3338364744051L233.23421313034146,242.4625450319448L240,240L240,240L240,240L240,240L240,240" style="opacity: 0.2;"></path><path class="line" fill="none" stroke="#E3E01E" d="M240,240L263.90058662531214,260.05497342222003L243.33404501120506,258.9083088578344L230.4,256.62768775266125L240,240L240,240L238.8,237.92153903091736L240,240L240,240L240,240" style="opacity: 0.2;"></path><path class="line" fill="none" stroke="#714213" d="M360,240L263.90058662531214,260.05497342222003L240.41675562640063,242.3635386072293L238.8,242.07846096908264L192.6394919123902,257.2378152236137L240,240L240,240L240,240L240,240L360,240" style="opacity: 0.2;"></path><path class="line" fill="none" stroke="#E3E01E" d="M240,240L263.90058662531214,260.05497342222003L242.5005337584038,254.18123164337578L232.8,252.4707658144959L233.23421313034146,242.4625450319448L240,240L240,240L240,240L240,240L240,240" style="opacity: 0.2;"></path><path class="line" fill="none" stroke="#714213" d="M360,240L263.90058662531214,260.05497342222003L240.41675562640063,242.3635386072293L238.8,242.07846096908264L217.44737710113822,248.20848343981606L240,240L240,240L240,240L240,240L360,240" style="opacity: 0.2;"></path><path class="line" fill="none" stroke="#E3E01E" d="M240,240L263.90058662531214,260.05497342222003L243.7508006376057,261.2718474650637L229.20000000000002,258.7061487217439L221.95790168091057,246.56678675185285L240,240L240,240L240,240L240,240L240,240" style="opacity: 0.2;"></path><path class="line" fill="none" stroke="#714213" d="M360,240L263.90058662531214,260.05497342222003L240.41675562640063,242.3635386072293L238.8,242.07846096908264L224.21316397079673,245.74593840787125L240,240L240,240L240,240L240,240L360,240" style="opacity: 0.2;"></path><path class="line" fill="none" stroke="#E3E01E" d="M240,240L263.90058662531214,260.05497342222003L242.91728938480443,256.5447702506051L231.6,254.54922678357858L237.7447377101138,240.8208483439816L240,240L238.8,237.92153903091736L240,240L240,240L240,240" style="opacity: 0.2;"></path><path class="line" fill="none" stroke="#234099" d="M240,240L328.2483198473063,314.0491326358893L240,240L240,240L240,240L240,240L240,240L240.83351125280126,235.2729227855414L240,240L240,240" style="opacity: 0.2;"></path><path class="line" fill="none" stroke="#B9186D" d="M360,240L263.90058662531214,260.05497342222003L240,240L240,240L158.81055756409754,269.55054038333776L240,240L240,240L240,240L240,240L360,240" style="opacity: 0.2;"></path><path class="line" fill="none" stroke="#E3E01E" d="M240,240L263.90058662531214,260.05497342222003L242.08377813200318,251.8176930361465L234,250.39230484541326L235.48947542022765,241.64169668796322L240,240L240,240L240,240L240,240L240,240" style="opacity: 0.2;"></path><path class="line" fill="none" stroke="#000" d="M240,240L263.90058662531214,260.05497342222003L244.58431189040695,265.9989246795223L226.8,262.86307065990917L237.7447377101138,240.8208483439816L240,240L238.8,237.92153903091736L240,240L240,240L240,240" style="opacity: 0.2;"></path><path class="line" fill="none" stroke="#234099" d="M360,240L263.90058662531214,260.05497342222003L240.41675562640063,242.3635386072293L238.8,242.07846096908264L230.97895084045527,243.2833933759264L240,240L240,240L240,240L240,240L360,240" style="opacity: 0.2;"></path><path class="line" fill="none" stroke="#714213" d="M240,240L263.90058662531214,260.05497342222003L242.08377813200318,251.8176930361465L234,250.39230484541326L215.19211481125203,249.02933178379766L240,240L240,240L240,240L240,240L240,240" style="opacity: 0.2;"></path><path class="line" fill="none" stroke="#234099" d="M240,240L280.44714659668205,273.9391857914493L240,240L240,240L240,240L240,240L234,229.60769515458674L240,240L240,240L240,240" style="opacity: 0.2;"></path><path class="line" fill="none" stroke="#E3E01E" d="M240,240L263.90058662531214,260.05497342222003L243.7508006376057,261.2718474650637L229.20000000000002,258.7061487217439L237.7447377101138,240.8208483439816L240,240L238.8,237.92153903091736L240,240L240,240L240,240" style="opacity: 0.2;"></path><path class="line" fill="none" stroke="#000" d="M480,240L304.34773322199413,293.9941592136693L248.33511252801267,287.270772144586L216,281.56921938165306L217.44737710113822,248.20848343981606L240,240L240,240L240,240L240,240L480,240" style="opacity: 0.2;"></path><path class="line" fill="none" stroke="#714213" d="M360,240L263.90058662531214,260.05497342222003L240.83351125280126,244.7270772144586L237.6,244.1569219381653L201.66054107193494,253.95442184768729L240,240L240,240L240,240L240,240L360,240" style="opacity: 0.2;"></path><path class="line" fill="none" stroke="#E3E01E" d="M240,240L263.90058662531214,260.05497342222003L243.7508006376057,261.2718474650637L229.20000000000002,258.7061487217439L235.48947542022765,241.64169668796322L240,240L240,240L240,240L240,240L240,240" style="opacity: 0.2;"></path><path class="line" fill="none" stroke="#E3E01E" d="M240,240L335.60234650124846,320.2198936888801L243.33404501120506,258.9083088578344L230.4,256.62768775266125L237.7447377101138,240.8208483439816L240,240L240,240L240,240L240,240L240,240" style="opacity: 0.2;"></path><path class="line" fill="none" stroke="#E3E01E" d="M240,240L280.44714659668205,273.9391857914493L244.16755626400632,263.635386072293L228,260.7846096908265L237.7447377101138,240.8208483439816L240,240L238.8,237.92153903091736L240,240L240,240L240,240" style="opacity: 0.2;"></path><path class="line" fill="none" stroke="#234099" d="M240,240L344.7948798186762,327.93334500511855L241.2502668792019,247.0906158216879L236.4,246.23538290724795L228.7236885505691,244.10424171990803L240,240L240,240L240,240L240,240L240,240" style="opacity: 0.2;"></path><path class="line" fill="none" stroke="#234099" d="M240,240L344.7948798186762,327.93334500511855L240,240L240,240L240,240L240,240L240,240L242.5005337584038,225.81876835662422L240,240L240,240" style="opacity: 0.2;"></path><path class="line" fill="none" stroke="#000" d="M240,240L319.05578652987856,306.33568131965086L242.91728938480443,256.5447702506051L231.6,254.54922678357858L235.48947542022765,241.64169668796322L240,240L240,240L240,240L240,240L240,240" style="opacity: 0.2;"></path><path class="line" fill="none" stroke="#000" d="M480,240L256.5465599713699,253.88421236922926L241.2502668792019,247.0906158216879L236.4,246.23538290724795L240,240L240,240L236.4,233.76461709275205L240,240L240,240L480,240" style="opacity: 0.2;"></path><path class="line" fill="none" stroke="#B9186D" d="M240,240L352.14890647261836,334.1041060581093L243.7508006376057,261.2718474650637L229.20000000000002,258.7061487217439L102.42900031694302,290.0717489828779L240,240L240,240L240,240L240,240L240,240" style="opacity: 0.2;"></path><path class="line" fill="none" stroke="#E3E01E" d="M240,240L335.60234650124846,320.2198936888801L242.08377813200318,251.8176930361465L234,250.39230484541326L233.23421313034146,242.4625450319448L240,240L240,240L240,240L240,240L240,240" style="opacity: 0.2;"></path><path class="line" fill="none" stroke="#714213" d="M360,240L280.44714659668205,273.9391857914493L240.41675562640063,242.3635386072293L238.8,242.07846096908264L217.44737710113822,248.20848343981606L240,240L240,240L240,240L240,240L360,240" style="opacity: 0.2;"></path><path class="line" fill="none" stroke="#714213" d="M480,240L359.50293312656055,340.2748671111001L240.83351125280126,244.7270772144586L237.6,244.1569219381653L212.93685252136584,249.85018012777925L240,240L240,240L240.41675562640063,237.6364613927707L240,240L480,240" style="opacity: 0.2;"></path><path class="line" fill="none" stroke="#714213" d="M360,240L335.60234650124846,320.2198936888801L240.41675562640063,242.3635386072293L238.8,242.07846096908264L212.93685252136584,249.85018012777925L240,240L240,240L240,240L240,240L360,240" style="opacity: 0.2;"></path><path class="line" fill="none" stroke="#234099" d="M240,240L280.44714659668205,273.9391857914493L240,240L240,240L240,240L240,240L240,240L244.16755626400632,216.364613927707L240,240L240,240" style="opacity: 0.2;"></path><path class="line" fill="none" stroke="#714213" d="M240,240L304.34773322199413,293.9941592136693L240.83351125280126,244.7270772144586L237.6,244.1569219381653L190.38422962250405,258.0586635675953L228.7236885505691,235.89575828009197L240,240L240,240L240,240L240,240" style="opacity: 0.2;"></path><path class="line" fill="none" stroke="#714213" d="M240,240L280.44714659668205,273.9391857914493L240.41675562640063,242.3635386072293L238.8,242.07846096908264L219.70263939102438,247.38763509583444L240,240L240,240L240,240L240,240L240,240" style="opacity: 0.2;"></path><path class="line" fill="none" stroke="#234099" d="M240,240L256.5465599713699,253.88421236922926L240.83351125280126,244.7270772144586L237.6,244.1569219381653L237.7447377101138,240.8208483439816L240,240L240,240L240,240L240,240L240,240" style="opacity: 0.2;"></path><path class="line" fill="none" stroke="#234099" d="M240,240L256.5465599713699,253.88421236922926L240.83351125280126,244.7270772144586L237.6,244.1569219381653L233.23421313034146,242.4625450319448L240,240L240,240L240,240L240,240L240,240" style="opacity: 0.2;"></path><path class="line" fill="none" stroke="#234099" d="M240,240L280.44714659668205,273.9391857914493L240.41675562640063,242.3635386072293L238.8,242.07846096908264L240,240L240,240L240,240L250.00213503361516,183.27507342649682L240,240L240,240" style="opacity: 0.2;"></path><path class="line" fill="none" stroke="#E3E01E" d="M240,240L352.14890647261836,334.1041060581093L244.16755626400632,263.635386072293L228,260.7846096908265L228.7236885505691,244.10424171990803L240,240L240,240L240,240L240,240L240,240" style="opacity: 0.2;"></path><path class="line" fill="none" stroke="#714213" d="M240,240L352.14890647261836,334.1041060581093L241.2502668792019,247.0906158216879L236.4,246.23538290724795L217.44737710113822,248.20848343981606L240,240L240,240L240,240L240,240L240,240" style="opacity: 0.2;"></path><path class="line" fill="none" stroke="#E3E01E" d="M240,240L352.14890647261836,334.1041060581093L245.83457876960887,273.0895405012102L223.20000000000002,269.09845356715715L235.48947542022765,241.64169668796322L240,240L240,240L240,240L240,240L240,240" style="opacity: 0.2;"></path><path class="line" fill="none" stroke="#714213" d="M240,240L335.60234650124846,320.2198936888801L240.41675562640063,242.3635386072293L238.8,242.07846096908264L224.21316397079673,245.74593840787125L240,240L240,240L240,240L240,240L240,240" style="opacity: 0.2;"></path><path class="line" fill="none" stroke="#714213" d="M240,240L352.14890647261836,334.1041060581093L240.41675562640063,242.3635386072293L238.8,242.07846096908264L215.19211481125203,249.02933178379766L235.48947542022765,238.35830331203678L240,240L240,240L240,240L240,240" style="opacity: 0.2;"></path><path class="line" fill="none" stroke="#714213" d="M480,240L352.14890647261836,334.1041060581093L242.5005337584038,254.18123164337578L232.8,252.4707658144959L217.44737710113822,248.20848343981606L235.48947542022765,238.35830331203678L240,240L240,240L240,240L480,240" style="opacity: 0.2;"></path><path class="line" fill="none" stroke="#E3E01E" d="M240,240L304.34773322199413,293.9941592136693L245.41782314320824,270.7260018939809L224.4,267.0199925980745L228.7236885505691,244.10424171990803L240,240L240,240L240,240L240,240L240,240" style="opacity: 0.2;"></path><path class="line" fill="none" stroke="#B9186D" d="M240,240L304.34773322199413,293.9941592136693L240.41675562640063,242.3635386072293L238.8,242.07846096908264L152.04477069443897,272.0130854152826L240,240L240,240L240,240L240,240L240,240" style="opacity: 0.2;"></path><path class="line" fill="none" stroke="#20B818" d="M480,240L368.69546644398827,347.9883184273386L250.0021350336152,296.7249265735032L211.20000000000002,289.8830632579837L237.7447377101138,240.8208483439816L240,240L237.6,235.8430780618347L240.41675562640063,237.6364613927707L240,240L480,240" style="opacity: 0.2;"></path><path class="line" fill="none" stroke="#20B818" d="M240,240L304.34773322199413,293.9941592136693L250.41889066001582,299.0884651807325L210,291.9615242270663L203.91580336182113,253.1335735037057L240,240L240,240L240,240L240,240L240,240" style="opacity: 0.2;"></path><path class="line" fill="none" stroke="#E3E01E" d="M240,240L335.60234650124846,320.2198936888801L242.5005337584038,254.18123164337578L232.8,252.4707658144959L233.23421313034146,242.4625450319448L240,240L240,240L240,240L240,240L240,240" style="opacity: 0.2;"></path><path class="line" fill="none" stroke="#234099" d="M240,240L287.80117325062423,280.10994684444006L240,240L240,240L240,240L240,240L240,240L242.08377813200315,228.1823069638535L240,240L240,240" style="opacity: 0.2;"></path><path class="line" fill="none" stroke="#E3E01E" d="M480,240L352.14890647261836,334.1041060581093L244.58431189040695,265.9989246795223L226.8,262.86307065990917L237.7447377101138,240.8208483439816L240,240L238.8,237.92153903091736L240,240L240,240L480,240" style="opacity: 0.2;"></path><path class="line" fill="none" stroke="#000" d="M240,240L311.7017598759363,300.1649202666601L242.5005337584038,254.18123164337578L232.8,252.4707658144959L240,240L240,240L237.6,235.8430780618347L240.41675562640063,237.6364613927707L240,240L240,240" style="opacity: 0.2;"></path><path class="line" fill="none" stroke="#20B818" d="M240,240L304.34773322199413,293.9941592136693L253.75293567122088,317.99677403856685L200.4,308.58921197972757L206.1710656517073,252.31272515972407L240,240L240,240L240,240L240,240L240,240" style="opacity: 0.2;"></path><path class="line" fill="none" stroke="#E3E01E" d="M240,240L319.05578652987856,306.33568131965086L241.66702250560255,249.4541544289172L235.2,248.31384387633062L228.7236885505691,244.10424171990803L240,240L240,240L240,240L240,240L240,240" style="opacity: 0.2;"></path><path class="line" fill="none" stroke="#20B818" d="M240,240L287.80117325062423,280.10994684444006L252.502668792019,310.90615821687896L204,302.3538290724796L240,240L240,240L236.4,233.76461709275205L243.7508006376057,218.7281525349363L240,240L240,240" style="opacity: 0.2;"></path><path class="line" fill="none" stroke="#E3E01E" d="M240,240L304.34773322199413,293.9941592136693L245.0010675168076,268.36246328675156L225.60000000000002,264.9415316289918L235.48947542022765,241.64169668796322L240,240L240,240L240,240L240,240L240,240" style="opacity: 0.2;"></path><path class="line" fill="none" stroke="#234099" d="M240,240L328.2483198473063,314.0491326358893L240.41675562640063,242.3635386072293L238.8,242.07846096908264L240,240L240,240L240,240L255.41995817682337,152.54907153251594L240,240L240,240" style="opacity: 0.2;"></path><path class="line" fill="none" stroke="#234099" d="M240,240L280.44714659668205,273.9391857914493L240,240L240,240L240,240L240,240L240,240L241.2502668792019,232.9093841783121L240,240L240,240" style="opacity: 0.2;"></path><path class="line" fill="none" stroke="#714213" d="M480,240L376.0494930979305,354.15907948032935L240.83351125280126,244.7270772144586L237.6,244.1569219381653L224.21316397079673,245.74593840787125L237.7447377101138,239.1791516560184L240,240L240,240L240,240L480,240" style="opacity: 0.2;"></path><path class="line" fill="none" stroke="#234099" d="M240,240L383.4035197518727,360.3298405333202L240,240L240,240L235.48947542022765,241.64169668796322L240,240L240,240L240,240L240,240L240,240" style="opacity: 0.2;"></path><path class="line" fill="none" stroke="#714213" d="M240,240L256.5465599713699,253.88421236922926L240,240L240,240L224.21316397079673,245.74593840787125L194.8947542022764,223.5830331203679L240,240L240,240L240,240L240,240" style="opacity: 0.2;"></path><path class="line" fill="none" stroke="#234099" d="M240,240L392.5960530693004,368.0432918495586L240,240L240,240L240,240L240,240L236.4,233.76461709275205L240.41675562640063,237.6364613927707L240,240L240,240" style="opacity: 0.2;"></path><path class="line" fill="none" stroke="#234099" d="M240,240L311.7017598759363,300.1649202666601L240.41675562640063,242.3635386072293L238.8,242.07846096908264L237.7447377101138,240.8208483439816L240,240L240,240L240,240L240,240L240,240" style="opacity: 0.2;"></path><path class="line" fill="none" stroke="#234099" d="M480,240L271.25461327925433,266.2257344752108L240,240L240,240L240,240L240,240L240,240L240.41675562640063,237.6364613927707L240,240L480,240" style="opacity: 0.2;"></path><path class="line" fill="none" stroke="#234099" d="M240,240L311.7017598759363,300.1649202666601L240,240L240,240L240,240L240,240L237.6,235.8430780618347L240,240L240,240L240,240" style="opacity: 0.2;"></path><path class="line" fill="none" stroke="#234099" d="M240,240L311.7017598759363,300.1649202666601L240,240L240,240L240,240L237.7447377101138,239.1791516560184L240,240L240,240L240,240L240,240" style="opacity: 0.2;"></path><path class="line" fill="none" stroke="#714213" d="M240,240L287.80117325062423,280.10994684444006L240.41675562640063,242.3635386072293L238.8,242.07846096908264L185.87370504273167,259.7003602555585L240,240L240,240L240,240L240,240L240,240" style="opacity: 0.2;"></path><path class="line" fill="none" stroke="#714213" d="M240,240L399.95007972324265,374.2140529025494L240,240L240,240L226.46842626068292,244.92509006388963L240,240L240,240L240,240L240,240L240,240" style="opacity: 0.2;"></path><path class="line" fill="none" stroke="#234099" d="M240,240L392.5960530693004,368.0432918495586L240,240L240,240L240,240L240,240L234,229.60769515458674L240.83351125280126,235.2729227855414L240,240L240,240" style="opacity: 0.2;"></path><path class="line" fill="none" stroke="#714213" d="M240,240L287.80117325062423,280.10994684444006L242.5005337584038,254.18123164337578L232.8,252.4707658144959L210.68159023147965,250.67102847176088L240,240L240,240L240.41675562640063,237.6364613927707L240,240L240,240" style="opacity: 0.2;"></path><path class="line" fill="none" stroke="#714213" d="M240,240L287.80117325062423,280.10994684444006L240.83351125280126,244.7270772144586L237.6,244.1569219381653L221.95790168091057,246.56678675185285L240,240L240,240L240,240L240,240L240,240" style="opacity: 0.2;"></path><path class="line" fill="none" stroke="#000" d="M480,240L311.7017598759363,300.1649202666601L243.7508006376057,261.2718474650637L229.20000000000002,258.7061487217439L240,240L240,240L220.79999999999998,206.74462449467757L241.2502668792019,232.9093841783121L240,240L480,240" style="opacity: 0.2;"></path><path class="line" fill="none" stroke="#E3E01E" d="M240,240L280.44714659668205,273.9391857914493L241.2502668792019,247.0906158216879L236.4,246.23538290724795L235.48947542022765,241.64169668796322L240,240L240,240L240,240L240,240L240,240" style="opacity: 0.2;"></path><path class="line" fill="none" stroke="#E3E01E" d="M240,240L304.34773322199413,293.9941592136693L242.5005337584038,254.18123164337578L232.8,252.4707658144959L221.95790168091057,246.56678675185285L240,240L240,240L240,240L240,240L240,240" style="opacity: 0.2;"></path><path class="line" fill="none" stroke="#E3E01E" d="M240,240L280.44714659668205,273.9391857914493L242.08377813200318,251.8176930361465L234,250.39230484541326L237.7447377101138,240.8208483439816L240,240L240,240L240,240L240,240L240,240" style="opacity: 0.2;"></path><path class="line" fill="none" stroke="#234099" d="M360,240L280.44714659668205,273.9391857914493L240.41675562640063,242.3635386072293L238.8,242.07846096908264L228.7236885505691,244.10424171990803L240,240L240,240L240,240L240,240L360,240" style="opacity: 0.2;"></path><path class="line" fill="none" stroke="#234099" d="M240,240L256.5465599713699,253.88421236922926L240.41675562640063,242.3635386072293L238.8,242.07846096908264L237.7447377101138,240.8208483439816L240,240L240,240L257.9204919352272,138.3678398891401L240,240L240,240" style="opacity: 0.2;"></path><path class="line" fill="none" stroke="#234099" d="M240,240L392.5960530693004,368.0432918495586L240,240L240,240L240,240L240,240L235.2,231.68615612366938L240.41675562640063,237.6364613927707L240,240L240,240" style="opacity: 0.2;"></path><path class="line" fill="none" stroke="#714213" d="M360,240L335.60234650124846,320.2198936888801L240,240L240,240L206.1710656517073,252.31272515972407L240,240L240,240L240,240L240,240L360,240" style="opacity: 0.2;"></path><path class="line" fill="none" stroke="#714213" d="M240,240L304.34773322199413,293.9941592136693L241.2502668792019,247.0906158216879L236.4,246.23538290724795L185.87370504273167,259.7003602555585L240,240L240,240L240,240L240,240L240,240" style="opacity: 0.2;"></path><path class="line" fill="none" stroke="#714213" d="M360,240L335.60234650124846,320.2198936888801L240,240L240,240L206.1710656517073,252.31272515972407L240,240L240,240L240,240L240,240L360,240" style="opacity: 0.2;"></path><path class="line" fill="none" stroke="#234099" d="M240,240L280.44714659668205,273.9391857914493L240.41675562640063,242.3635386072293L238.8,242.07846096908264L230.97895084045527,243.2833933759264L240,240L240,240L240,240L240,240L240,240" style="opacity: 0.2;"></path><path class="line" fill="none" stroke="#E3E01E" d="M240,240L287.80117325062423,280.10994684444006L242.91728938480443,256.5447702506051L231.6,254.54922678357858L230.97895084045527,243.2833933759264L240,240L240,240L240,240L240,240L240,240" style="opacity: 0.2;"></path><path class="line" fill="none" stroke="#234099" d="M240,240L280.44714659668205,273.9391857914493L240.41675562640063,242.3635386072293L238.8,242.07846096908264L240,240L240,240L240,240L240.41675562640063,237.6364613927707L240,240L240,240" style="opacity: 0.2;"></path><path class="line" fill="none" stroke="#234099" d="M240,240L392.5960530693004,368.0432918495586L240.41675562640063,242.3635386072293L238.8,242.07846096908264L240,240L240,240L240,240L241.66702250560252,230.5458455710828L240,240L240,240" style="opacity: 0.2;"></path><path class="line" fill="none" stroke="#20B818" d="M240,240L280.44714659668205,273.9391857914493L250.41889066001582,299.0884651807325L210,291.9615242270663L237.7447377101138,240.8208483439816L240,240L237.6,235.8430780618347L240,240L240,240L240,240" style="opacity: 0.2;"></path><path class="line" fill="none" stroke="#B9186D" d="M360,240L352.14890647261836,334.1041060581093L240.41675562640063,242.3635386072293L238.8,242.07846096908264L14.473771011382013,322.0848343981605L240,240L240,240L240,240L240,240L360,240" style="opacity: 0.2;"></path><path class="line" fill="none" stroke="#E3E01E" d="M240,240L280.44714659668205,273.9391857914493L241.66702250560255,249.4541544289172L235.2,248.31384387633062L233.23421313034146,242.4625450319448L240,240L240,240L240,240L240,240L240,240" style="opacity: 0.2;"></path><path class="line" fill="none" stroke="#B9186D" d="M360,240L287.80117325062423,280.10994684444006L240.41675562640063,242.3635386072293L238.8,242.07846096908264L70.8553282585365,301.5636257986204L240,240L240,240L240,240L240,240L360,240" style="opacity: 0.2;"></path><path class="line" fill="none" stroke="#000" d="M240,240L392.5960530693004,368.0432918495586L248.33511252801267,287.270772144586L216,281.56921938165306L201.66054107193494,253.95442184768729L240,240L240,240L240.41675562640063,237.6364613927707L240,240L240,240" style="opacity: 0.2;"></path><path class="line" fill="none" stroke="#234099" d="M240,240L280.44714659668205,273.9391857914493L240,240L240,240L240,240L240,240L238.8,237.92153903091736L240.41675562640063,237.6364613927707L241.83850666348556,238.4573097367523L240,240" style="opacity: 0.2;"></path><path class="line" fill="none" stroke="#E3E01E" d="M240,240L407.3041063771848,380.38481395554015L246.66809002241013,277.81661771566877L220.8,273.25537550532243L217.44737710113822,248.20848343981606L235.48947542022765,238.35830331203678L240,240L240,240L240,240L240,240" style="opacity: 0.2;"></path><path class="line" fill="none" stroke="#E3E01E" d="M240,240L280.44714659668205,273.9391857914493L242.08377813200318,251.8176930361465L234,250.39230484541326L235.48947542022765,241.64169668796322L240,240L240,240L240,240L240,240L240,240" style="opacity: 0.2;"></path><path class="line" fill="none" stroke="#234099" d="M480,240L287.80117325062423,280.10994684444006L240.41675562640063,242.3635386072293L238.8,242.07846096908264L230.97895084045527,243.2833933759264L215.19211481125203,230.97066821620234L240,240L240,240L240,240L480,240" style="opacity: 0.2;"></path><path class="line" fill="none" stroke="#234099" d="M240,240L280.44714659668205,273.9391857914493L240,240L240,240L240,240L240,240L240,240L245.00106751680758,211.6375367132484L240,240L240,240" style="opacity: 0.2;"></path><path class="line" fill="none" stroke="#E3E01E" d="M240,240L304.34773322199413,293.9941592136693L242.91728938480443,256.5447702506051L231.6,254.54922678357858L240,240L240,240L237.6,235.8430780618347L240,240L240,240L240,240" style="opacity: 0.2;"></path><path class="line" fill="none" stroke="#E3E01E" d="M240,240L280.44714659668205,273.9391857914493L244.58431189040695,265.9989246795223L226.8,262.86307065990917L233.23421313034146,242.4625450319448L240,240L240,240L240,240L240,240L240,240" style="opacity: 0.2;"></path><path class="line" fill="none" stroke="#234099" d="M240,240L280.44714659668205,273.9391857914493L240,240L240,240L240,240L240,240L240,240L245.4178231432082,209.2739981060191L240,240L240,240" style="opacity: 0.2;"></path><path class="line" fill="none" stroke="#234099" d="M360,240L359.50293312656055,340.2748671111001L240.41675562640063,242.3635386072293L238.8,242.07846096908264L228.7236885505691,244.10424171990803L237.7447377101138,239.1791516560184L240,240L240,240L240,240L360,240" style="opacity: 0.2;"></path><path class="line" fill="none" stroke="#E3E01E" d="M240,240L280.44714659668205,273.9391857914493L243.7508006376057,261.2718474650637L229.20000000000002,258.7061487217439L230.97895084045527,243.2833933759264L240,240L240,240L240,240L240,240L240,240" style="opacity: 0.2;"></path><path class="line" fill="none" stroke="#234099" d="M240,240L280.44714659668205,273.9391857914493L240.83351125280126,244.7270772144586L237.6,244.1569219381653L237.7447377101138,240.8208483439816L201.66054107193492,226.04557815231271L240,240L240,240L240,240L240,240" style="opacity: 0.2;"></path><path class="line" fill="none" stroke="#E3E01E" d="M240,240L359.50293312656055,340.2748671111001L244.58431189040695,265.9989246795223L226.8,262.86307065990917L240,240L240,240L237.6,235.8430780618347L240,240L240,240L240,240" style="opacity: 0.2;"></path><path class="line" fill="none" stroke="#E3E01E" d="M480,240L328.2483198473063,314.0491326358893L242.5005337584038,254.18123164337578L232.8,252.4707658144959L237.7447377101138,240.8208483439816L237.7447377101138,239.1791516560184L238.8,237.92153903091736L240,240L240,240L480,240" style="opacity: 0.2;"></path><path class="line" fill="none" stroke="#234099" d="M360,240L280.44714659668205,273.9391857914493L240,240L240,240L235.48947542022765,241.64169668796322L235.48947542022765,238.35830331203678L240,240L240,240L240,240L360,240" style="opacity: 0.2;"></path><path class="line" fill="none" stroke="#E3E01E" d="M240,240L359.50293312656055,340.2748671111001L246.66809002241013,277.81661771566877L220.8,273.25537550532243L237.7447377101138,240.8208483439816L240,240L237.6,235.8430780618347L240,240L240,240L240,240" style="opacity: 0.2;"></path><path class="line" fill="none" stroke="#714213" d="M240,240L304.34773322199413,293.9941592136693L240.83351125280126,244.7270772144586L237.6,244.1569219381653L217.44737710113822,248.20848343981606L240,240L240,240L240,240L240,240L240,240" style="opacity: 0.2;"></path><path class="line" fill="none" stroke="#E3E01E" d="M360,240L359.50293312656055,340.2748671111001L241.2502668792019,247.0906158216879L236.4,246.23538290724795L228.7236885505691,244.10424171990803L240,240L240,240L240,240L240,240L360,240" style="opacity: 0.2;"></path><path class="line" fill="none" stroke="#E3E01E" d="M240,240L304.34773322199413,293.9941592136693L243.7508006376057,261.2718474650637L229.20000000000002,258.7061487217439L237.7447377101138,240.8208483439816L240,240L238.8,237.92153903091736L240,240L240,240L240,240" style="opacity: 0.2;"></path><path class="line" fill="none" stroke="#714213" d="M360,240L263.90058662531214,260.05497342222003L243.7508006376057,261.2718474650637L229.20000000000002,258.7061487217439L215.19211481125203,249.02933178379766L240,240L240,240L240,240L240,240L360,240" style="opacity: 0.2;"></path><path class="line" fill="none" stroke="#714213" d="M240,240L319.05578652987856,306.33568131965086L240.83351125280126,244.7270772144586L237.6,244.1569219381653L217.44737710113822,248.20848343981606L240,240L240,240L240,240L240,240L240,240" style="opacity: 0.2;"></path><path class="line" fill="none" stroke="#B9186D" d="M240,240L287.80117325062423,280.10994684444006L240,240L240,240L41.53691849001618,312.23465427038127L240,240L240,240L240,240L240,240L240,240" style="opacity: 0.2;"></path><path class="line" fill="none" stroke="#000" d="M240,240L287.80117325062423,280.10994684444006L243.7508006376057,261.2718474650637L229.20000000000002,258.7061487217439L224.21316397079673,245.74593840787125L240,240L240,240L240.41675562640063,237.6364613927707L240,240L240,240" style="opacity: 0.2;"></path><path class="line" fill="none" stroke="#B9186D" d="M240,240L359.50293312656055,340.2748671111001L240.41675562640063,242.3635386072293L238.8,242.07846096908264L127.236885505691,281.04241719908026L240,240L240,240L240,240L240,240L240,240" style="opacity: 0.2;"></path><path class="line" fill="none" stroke="#E3E01E" d="M240,240L359.50293312656055,340.2748671111001L245.0010675168076,268.36246328675156L225.60000000000002,264.9415316289918L240,240L240,240L236.4,233.76461709275205L240,240L240,240L240,240" style="opacity: 0.2;"></path><path class="line" fill="none" stroke="#234099" d="M240,240L280.44714659668205,273.9391857914493L240,240L240,240L240,240L240,240L240,240L244.58431189040695,214.0010753204777L240,240L240,240" style="opacity: 0.2;"></path><path class="line" fill="none" stroke="#E3E01E" d="M240,240L359.50293312656055,340.2748671111001L244.58431189040695,265.9989246795223L226.8,262.86307065990917L235.48947542022765,241.64169668796322L240,240L240,240L240,240L240,240L240,240" style="opacity: 0.2;"></path><path class="line" fill="none" stroke="#000" d="M240,240L295.1551999045664,286.28070789743083L242.91728938480443,256.5447702506051L231.6,254.54922678357858L240,240L240,240L238.8,237.92153903091736L240,240L240,240L240,240" style="opacity: 0.2;"></path><path class="line" fill="none" stroke="#234099" d="M360,240L304.34773322199413,293.9941592136693L240.83351125280126,244.7270772144586L237.6,244.1569219381653L240,240L240,240L236.4,233.76461709275205L240,240L240,240L360,240" style="opacity: 0.2;"></path><path class="line" fill="none" stroke="#B9186D" d="M240,240L311.7017598759363,300.1649202666601L240.83351125280126,244.7270772144586L237.6,244.1569219381653L154.30003298432516,271.192237071301L240,240L240,240L240,240L240,240L240,240" style="opacity: 0.2;"></path><path class="line" fill="none" stroke="#E3E01E" d="M240,240L311.7017598759363,300.1649202666601L246.2513343960095,275.4530791084395L222,271.1769145362398L240,240L240,240L237.6,235.8430780618347L240,240L240,240L240,240" style="opacity: 0.2;"></path><path class="line" fill="none" stroke="#000" d="M240,240L311.7017598759363,300.1649202666601L241.2502668792019,247.0906158216879L236.4,246.23538290724795L240,240L240,240L235.2,231.68615612366938L281.67556264006316,3.6461392770700627L240,240L240,240" style="opacity: 0.2;"></path><path class="line" fill="none" stroke="#E3E01E" d="M240,240L311.7017598759363,300.1649202666601L246.2513343960095,275.4530791084395L222,271.1769145362398L233.23421313034146,242.4625450319448L240,240L240,240L240,240L240,240L240,240" style="opacity: 0.2;"></path><path class="line" fill="none" stroke="#000" d="M360,240L416.49663969461255,388.0982652717786L243.33404501120506,258.9083088578344L230.4,256.62768775266125L240,240L240,240L237.6,235.8430780618347L240.41675562640063,237.6364613927707L240,240L360,240" style="opacity: 0.2;"></path><path class="line" fill="none" stroke="#714213" d="M240,240L416.49663969461255,388.0982652717786L240,240L240,240L226.46842626068292,244.92509006388963L237.7447377101138,239.1791516560184L240,240L240,240L240,240L240,240" style="opacity: 0.2;"></path><path class="line" fill="none" stroke="#234099" d="M240,240L280.44714659668205,273.9391857914493L240.83351125280126,244.7270772144586L237.6,244.1569219381653L240,240L240,240L230.39999999999998,223.37231224733878L240.83351125280126,235.2729227855414L240,240L240,240" style="opacity: 0.2;"></path><path class="line" fill="none" stroke="#E3E01E" d="M240,240L359.50293312656055,340.2748671111001L245.83457876960887,273.0895405012102L223.20000000000002,269.09845356715715L240,240L240,240L237.6,235.8430780618347L240,240L240,240L240,240" style="opacity: 0.2;"></path><path class="line" fill="none" stroke="#20B818" d="M240,240L295.1551999045664,286.28070789743083L253.33618004482025,315.63323543133754L201.60000000000002,306.51075101064487L240,240L240,240L234,229.60769515458674L240,240L240,240L240,240" style="opacity: 0.2;"></path><path class="line" fill="none" stroke="#20B818" d="M240,240L416.49663969461255,388.0982652717786L250.0021350336152,296.7249265735032L211.20000000000002,289.8830632579837L240,240L240,240L234,229.60769515458674L240,240L240,240L240,240" style="opacity: 0.2;"></path><path class="line" fill="none" stroke="#234099" d="M240,240L280.44714659668205,273.9391857914493L240.41675562640063,242.3635386072293L238.8,242.07846096908264L240,240L235.48947542022765,238.35830331203678L240,240L240,240L240,240L240,240" style="opacity: 0.2;"></path><path class="line" fill="none" stroke="#E3E01E" d="M240,240L416.49663969461255,388.0982652717786L246.66809002241013,277.81661771566877L220.8,273.25537550532243L240,240L237.7447377101138,239.1791516560184L237.6,235.8430780618347L240,240L240,240L240,240" style="opacity: 0.2;"></path><path class="line" fill="none" stroke="#714213" d="M240,240L399.95007972324265,374.2140529025494L241.2502668792019,247.0906158216879L236.4,246.23538290724795L224.21316397079673,245.74593840787125L240,240L240,240L240,240L240,240L240,240" style="opacity: 0.2;"></path><path class="line" fill="none" stroke="#000" d="M240,240L416.49663969461255,388.0982652717786L243.33404501120506,258.9083088578344L230.4,256.62768775266125L237.7447377101138,240.8208483439816L240,240L238.8,237.92153903091736L246.25133439600947,204.5469208915605L240,240L240,240" style="opacity: 0.2;"></path><path class="line" fill="none" stroke="#E3E01E" d="M360,240L416.49663969461255,388.0982652717786L245.0010675168076,268.36246328675156L225.60000000000002,264.9415316289918L237.7447377101138,240.8208483439816L240,240L238.8,237.92153903091736L240,240L240,240L360,240" style="opacity: 0.2;"></path><path class="line" fill="none" stroke="#E3E01E" d="M480,240L416.49663969461255,388.0982652717786L242.5005337584038,254.18123164337578L232.8,252.4707658144959L240,240L240,240L235.2,231.68615612366938L240,240L240,240L480,240" style="opacity: 0.2;"></path><path class="line" fill="none" stroke="#E3E01E" d="M360,240L359.50293312656055,340.2748671111001L242.5005337584038,254.18123164337578L232.8,252.4707658144959L240,240L240,240L237.6,235.8430780618347L240,240L240,240L360,240" style="opacity: 0.2;"></path><path class="line" fill="none" stroke="#E3E01E" d="M240,240L416.49663969461255,388.0982652717786L245.83457876960887,273.0895405012102L223.20000000000002,269.09845356715715L233.23421313034146,242.4625450319448L237.7447377101138,239.1791516560184L240,240L240,240L240,240L240,240" style="opacity: 0.2;"></path><path class="line" fill="none" stroke="#E3E01E" d="M240,240L240,240L246.2513343960095,275.4530791084395L222,271.1769145362398L228.7236885505691,244.10424171990803L237.7447377101138,239.1791516560184L240,240L240,240L240,240L240,240" style="opacity: 0.2;"></path><path class="line" fill="none" stroke="#E3E01E" d="M240,240L280.44714659668205,273.9391857914493L242.08377813200318,251.8176930361465L234,250.39230484541326L233.23421313034146,242.4625450319448L240,240L240,240L240,240L240,240L240,240" style="opacity: 0.2;"></path><path class="line" fill="none" stroke="#E3E01E" d="M240,240L423.8506663485547,394.2690263247694L245.41782314320824,270.7260018939809L224.4,267.0199925980745L215.19211481125203,249.02933178379766L235.48947542022765,238.35830331203678L240,240L240,240L240,240L240,240" style="opacity: 0.2;"></path><path class="line" fill="none" stroke="#E3E01E" d="M240,240L359.50293312656055,340.2748671111001L244.16755626400632,263.635386072293L228,260.7846096908265L240,240L240,240L238.8,237.92153903091736L240,240L240,240L240,240" style="opacity: 0.2;"></path><path class="line" fill="none" stroke="#E3E01E" d="M240,240L359.50293312656055,340.2748671111001L242.91728938480443,256.5447702506051L231.6,254.54922678357858L240,240L240,240L237.6,235.8430780618347L240,240L240,240L240,240" style="opacity: 0.2;"></path><path class="line" fill="none" stroke="#B9186D" d="M360,240L416.49663969461255,388.0982652717786L241.2502668792019,247.0906158216879L236.4,246.23538290724795L145.27898382478043,274.47563044722745L240,240L240,240L240,240L240,240L360,240" style="opacity: 0.2;"></path><path class="line" fill="none" stroke="#000" d="M240,240L416.49663969461255,388.0982652717786L244.58431189040695,265.9989246795223L226.8,262.86307065990917L237.7447377101138,240.8208483439816L240,240L238.8,237.92153903091736L240,240L240,240L240,240" style="opacity: 0.2;"></path><path class="line" fill="none" stroke="#E3E01E" d="M240,240L416.49663969461255,388.0982652717786L247.50160127521139,282.5436949301274L218.4,277.4122974434878L240,240L240,240L237.6,235.8430780618347L240,240L240,240L240,240" style="opacity: 0.2;"></path><path class="line" fill="none" stroke="#234099" d="M240,240L416.49663969461255,388.0982652717786L240.83351125280126,244.7270772144586L237.6,244.1569219381653L228.7236885505691,244.10424171990803L237.7447377101138,239.1791516560184L240,240L240,240L240,240L240,240" style="opacity: 0.2;"></path><path class="line" fill="none" stroke="#234099" d="M480,240L287.80117325062423,280.10994684444006L240.41675562640063,242.3635386072293L238.8,242.07846096908264L240,240L240,240L237.6,235.8430780618347L240.41675562640063,237.6364613927707L240,240L480,240" style="opacity: 0.2;"></path><path class="line" fill="none" stroke="#E3E01E" d="M360,240L416.49663969461255,388.0982652717786L242.08377813200318,251.8176930361465L234,250.39230484541326L240,240L240,240L236.4,233.76461709275205L240,240L240,240L360,240" style="opacity: 0.2;"></path><path class="line" fill="none" stroke="#E3E01E" d="M240,240L416.49663969461255,388.0982652717786L245.41782314320824,270.7260018939809L224.4,267.0199925980745L240,240L240,240L237.6,235.8430780618347L240,240L240,240L240,240" style="opacity: 0.2;"></path><path class="line" fill="none" stroke="#234099" d="M360,240L416.49663969461255,388.0982652717786L240.83351125280126,244.7270772144586L237.6,244.1569219381653L240,240L240,240L234,229.60769515458674L240.83351125280126,235.2729227855414L240,240L360,240" style="opacity: 0.2;"></path><path class="line" fill="none" stroke="#E3E01E" d="M360,240L359.50293312656055,340.2748671111001L244.16755626400632,263.635386072293L228,260.7846096908265L237.7447377101138,240.8208483439816L240,240L238.8,237.92153903091736L240,240L240,240L360,240" style="opacity: 0.2;"></path><path class="line" fill="none" stroke="#B9186D" d="M360,240L416.49663969461255,388.0982652717786L240.83351125280126,244.7270772144586L237.6,244.1569219381653L145.27898382478043,274.47563044722745L240,240L240,240L240,240L240,240L360,240" style="opacity: 0.2;"></path><path class="line" fill="none" stroke="#714213" d="M240,240L416.49663969461255,388.0982652717786L240.41675562640063,242.3635386072293L238.8,242.07846096908264L190.38422962250405,258.0586635675953L230.97895084045527,236.7166066240736L240,240L240,240L240,240L240,240" style="opacity: 0.2;"></path><path class="line" fill="none" stroke="#E3E01E" d="M240,240L416.49663969461255,388.0982652717786L249.58537940721456,294.36138796627387L212.4,287.80460228890104L235.48947542022765,241.64169668796322L240,240L238.8,237.92153903091736L240,240L240,240L240,240" style="opacity: 0.2;"></path><path class="line" fill="none" stroke="#714213" d="M240,240L280.44714659668205,273.9391857914493L240,240L240,240L181.36318046295932,261.34205694352175L240,240L240,240L240,240L240,240L240,240" style="opacity: 0.2;"></path><path class="line" fill="none" stroke="#000" d="M240,240L304.34773322199413,293.9941592136693L242.08377813200318,251.8176930361465L234,250.39230484541326L226.46842626068292,244.92509006388963L240,240L240,240L240,240L240,240L240,240" style="opacity: 0.2;"></path><path class="line" fill="none" stroke="#E3E01E" d="M360,240L416.49663969461255,388.0982652717786L247.50160127521139,282.5436949301274L218.4,277.4122974434878L240,240L240,240L232.79999999999998,227.5292341855041L240,240L240,240L360,240" style="opacity: 0.2;"></path><path class="line" fill="none" stroke="#E3E01E" d="M240,240L287.80117325062423,280.10994684444006L245.41782314320824,270.7260018939809L224.4,267.0199925980745L237.7447377101138,240.8208483439816L240,240L238.8,237.92153903091736L240,240L240,240L240,240" style="opacity: 0.2;"></path><path class="line" fill="none" stroke="#234099" d="M240,240L416.49663969461255,388.0982652717786L240.83351125280126,244.7270772144586L237.6,244.1569219381653L240,240L240,240L240,240L241.2502668792019,232.9093841783121L240,240L240,240" style="opacity: 0.2;"></path><path class="line" fill="none" stroke="#000" d="M240,240L416.49663969461255,388.0982652717786L246.66809002241013,277.81661771566877L220.8,273.25537550532243L237.7447377101138,240.8208483439816L240,240L238.8,237.92153903091736L240.41675562640063,237.6364613927707L240,240L240,240" style="opacity: 0.2;"></path><path class="line" fill="none" stroke="#000" d="M360,240L287.80117325062423,280.10994684444006L245.83457876960887,273.0895405012102L223.20000000000002,269.09845356715715L240,240L240,240L226.79999999999998,217.13692934009083L240,240L240,240L360,240" style="opacity: 0.2;"></path><path class="line" fill="none" stroke="#20B818" d="M480,240L416.49663969461255,388.0982652717786L251.66915753921774,306.1790810024204L206.4,298.1969071343143L235.48947542022765,241.64169668796322L240,240L238.8,237.92153903091736L240,240L240,240L480,240" style="opacity: 0.2;"></path><path class="line" fill="none" stroke="#E3E01E" d="M360,240L416.49663969461255,388.0982652717786L244.16755626400632,263.635386072293L228,260.7846096908265L240,240L240,240L235.2,231.68615612366938L240,240L240,240L360,240" style="opacity: 0.2;"></path><path class="line" fill="none" stroke="#000" d="M240,240L287.80117325062423,280.10994684444006L246.66809002241013,277.81661771566877L220.8,273.25537550532243L235.48947542022765,241.64169668796322L240,240L238.8,237.92153903091736L240,240L240,240L240,240" style="opacity: 0.2;"></path><path class="line" fill="none" stroke="#000" d="M480,240L416.49663969461255,388.0982652717786L243.33404501120506,258.9083088578344L230.4,256.62768775266125L240,240L240,240L231.6,225.45077321642142L240.41675562640063,237.6364613927707L240,240L480,240" style="opacity: 0.2;"></path><path class="line" fill="none" stroke="#714213" d="M240,240L416.49663969461255,388.0982652717786L242.08377813200318,251.8176930361465L234,250.39230484541326L201.66054107193494,253.95442184768729L240,240L240,240L240,240L240,240L240,240" style="opacity: 0.2;"></path><path class="line" fill="none" stroke="#E3E01E" d="M240,240L416.49663969461255,388.0982652717786L248.33511252801267,287.270772144586L216,281.56921938165306L235.48947542022765,241.64169668796322L240,240L238.8,237.92153903091736L240,240L240,240L240,240" style="opacity: 0.2;"></path><path class="line" fill="none" stroke="#000" d="M240,240L304.34773322199413,293.9941592136693L241.2502668792019,247.0906158216879L236.4,246.23538290724795L230.97895084045527,243.2833933759264L240,240L240,240L240,240L240,240L240,240" style="opacity: 0.2;"></path><path class="line" fill="none" stroke="#234099" d="M360,240L416.49663969461255,388.0982652717786L240.83351125280126,244.7270772144586L237.6,244.1569219381653L240,240L240,240L240,240L240.83351125280126,235.2729227855414L240,240L360,240" style="opacity: 0.2;"></path><path class="line" fill="none" stroke="#E3E01E" d="M240,240L416.49663969461255,388.0982652717786L245.41782314320824,270.7260018939809L224.4,267.0199925980745L237.7447377101138,240.8208483439816L240,240L238.8,237.92153903091736L240,240L240,240L240,240" style="opacity: 0.2;"></path><path class="line" fill="none" stroke="#B9186D" d="M360,240L287.80117325062423,280.10994684444006L240.41675562640063,242.3635386072293L238.8,242.07846096908264L161.0658198539837,268.72969203935617L240,240L240,240L240,240L240,240L360,240" style="opacity: 0.2;"></path><path class="line" fill="none" stroke="#714213" d="M360,240L287.80117325062423,280.10994684444006L240.83351125280126,244.7270772144586L237.6,244.1569219381653L212.93685252136584,249.85018012777925L240,240L240,240L240,240L240,240L360,240" style="opacity: 0.2;"></path><path class="line" fill="none" stroke="#234099" d="M240,240L287.80117325062423,280.10994684444006L241.2502668792019,247.0906158216879L236.4,246.23538290724795L240,240L240,240L238.8,237.92153903091736L240.83351125280126,235.2729227855414L240,240L240,240" style="opacity: 0.2;"></path><path class="line" fill="none" stroke="#E3E01E" d="M240,240L359.50293312656055,340.2748671111001L242.08377813200318,251.8176930361465L234,250.39230484541326L240,240L240,240L238.8,237.92153903091736L240,240L240,240L240,240" style="opacity: 0.2;"></path><path class="line" fill="none" stroke="#714213" d="M360,240L335.60234650124846,320.2198936888801L240,240L240,240L224.21316397079673,245.74593840787125L240,240L240,240L240,240L240,240L360,240" style="opacity: 0.2;"></path><path class="line" fill="none" stroke="#E3E01E" d="M240,240L359.50293312656055,340.2748671111001L241.2502668792019,247.0906158216879L236.4,246.23538290724795L240,240L240,240L212.39999999999998,192.195397711099L240,240L240,240L240,240" style="opacity: 0.2;"></path><path class="line" fill="none" stroke="#B9186D" d="M360,240L359.50293312656055,340.2748671111001L240.41675562640063,242.3635386072293L238.8,242.07846096908264L127.236885505691,281.04241719908026L240,240L240,240L240,240L240,240L360,240" style="opacity: 0.2;"></path><path class="line" fill="none" stroke="#714213" d="M240,240L335.60234650124846,320.2198936888801L240,240L240,240L199.40527878204875,254.77527019166888L240,240L240,240L240,240L240,240L240,240" style="opacity: 0.2;"></path><path class="line" fill="none" stroke="#234099" d="M240,240L359.50293312656055,340.2748671111001L240.41675562640063,242.3635386072293L238.8,242.07846096908264L240,240L240,240L240,240L249.1686237808139,188.00215064095542L240,240L240,240" style="opacity: 0.2;"></path><path class="line" fill="none" stroke="#714213" d="M240,240L335.60234650124846,320.2198936888801L241.2502668792019,247.0906158216879L236.4,246.23538290724795L221.95790168091057,246.56678675185285L240,240L240,240L240,240L240,240L240,240" style="opacity: 0.2;"></path><path class="line" fill="none" stroke="#234099" d="M240,240L280.44714659668205,273.9391857914493L240,240L240,240L240,240L240,240L240,240L246.25133439600947,204.5469208915605L240,240L240,240" style="opacity: 0.2;"></path><path class="line" fill="none" stroke="#20B818" d="M360,240L416.49663969461255,388.0982652717786L260.0042700672304,353.44985314700637L182.40000000000003,339.76612651596736L240,240L240,240L208.79999999999995,185.96001480385104L240,240L240,240L360,240" style="opacity: 0.2;"></path><path class="line" fill="none" stroke="#234099" d="M360,240L359.50293312656055,340.2748671111001L240.41675562640063,242.3635386072293L238.8,242.07846096908264L240,240L240,240L240,240L249.58537940721453,185.6386120337261L240,240L360,240" style="opacity: 0.2;"></path><path class="line" fill="none" stroke="#714213" d="M240,240L359.50293312656055,340.2748671111001L241.66702250560255,249.4541544289172L235.2,248.31384387633062L215.19211481125203,249.02933178379766L240,240L240,240L240,240L240,240L240,240" style="opacity: 0.2;"></path><path class="line" fill="none" stroke="#B9186D" d="M360,240L359.50293312656055,340.2748671111001L240.41675562640063,242.3635386072293L238.8,242.07846096908264L95.66321344728448,292.53429401482276L212.93685252136584,230.14981987222075L240,240L240,240L240,240L360,240" style="opacity: 0.2;"></path><path class="line" fill="none" stroke="#20B818" d="M360,240L359.50293312656055,340.2748671111001L256.67022505602534,334.54154428917195L192.00000000000003,323.1384387633061L235.48947542022765,241.64169668796322L237.7447377101138,239.1791516560184L238.8,237.92153903091736L240,240L240,240L360,240" style="opacity: 0.2;"></path><path class="line" fill="none" stroke="#000" d="M360,240L359.50293312656055,340.2748671111001L242.5005337584038,254.18123164337578L232.8,252.4707658144959L240,240L240,240L226.79999999999998,217.13692934009083L240,240L240,240L360,240" style="opacity: 0.2;"></path><path class="line" fill="none" stroke="#B9186D" d="M360,240L359.50293312656055,340.2748671111001L240.41675562640063,242.3635386072293L238.8,242.07846096908264L124.98162321580482,281.86326554306186L240,240L240,240L240,240L240,240L360,240" style="opacity: 0.2;"></path><path class="line" fill="none" stroke="#E3E01E" d="M480,240L328.2483198473063,314.0491326358893L242.5005337584038,254.18123164337578L232.8,252.4707658144959L230.97895084045527,243.2833933759264L240,240L240,240L240,240L240,240L480,240" style="opacity: 0.2;"></path><path class="line" fill="none" stroke="#E3E01E" d="M360,240L359.50293312656055,340.2748671111001L245.83457876960887,273.0895405012102L223.20000000000002,269.09845356715715L240,240L240,240L232.79999999999998,227.5292341855041L240,240L240,240L360,240" style="opacity: 0.2;"></path><path class="line" fill="none" stroke="#B9186D" d="M360,240L359.50293312656055,340.2748671111001L240.41675562640063,242.3635386072293L238.8,242.07846096908264L154.30003298432516,271.192237071301L240,240L240,240L240,240L240,240L360,240" style="opacity: 0.2;"></path><path class="line" fill="none" stroke="#B9186D" d="M240,240L359.50293312656055,340.2748671111001L240,240L240,240L82.1316397079674,297.4593840787124L240,240L240,240L240,240L240,240L240,240" style="opacity: 0.2;"></path><path class="line" fill="none" stroke="#E3E01E" d="M240,240L359.50293312656055,340.2748671111001L248.33511252801267,287.270772144586L216,281.56921938165306L240,240L240,240L237.6,235.8430780618347L240,240L240,240L240,240" style="opacity: 0.2;"></path><path class="line" fill="none" stroke="#B9186D" d="M240,240L359.50293312656055,340.2748671111001L240,240L240,240L113.70531176637391,285.9675072629699L217.4473771011382,231.79151656018396L240,240L240,240L240,240L240,240" style="opacity: 0.2;"></path><path class="line" fill="none" stroke="#E3E01E" d="M360,240L359.50293312656055,340.2748671111001L242.91728938480443,256.5447702506051L231.6,254.54922678357858L240,240L240,240L232.79999999999998,227.5292341855041L240,240L240,240L360,240" style="opacity: 0.2;"></path><path class="line" fill="none" stroke="#714213" d="M360,240L359.50293312656055,340.2748671111001L240.83351125280126,244.7270772144586L237.6,244.1569219381653L194.8947542022764,256.4169668796321L240,240L240,240L240,240L240,240L360,240" style="opacity: 0.2;"></path><path class="line" fill="none" stroke="#000" d="M240,240L304.34773322199413,293.9941592136693L242.91728938480443,256.5447702506051L231.6,254.54922678357858L240,240L240,240L224.39999999999998,212.98000740192552L241.2502668792019,232.9093841783121L240,240L240,240" style="opacity: 0.2;"></path><path class="line" fill="none" stroke="#714213" d="M240,240L280.44714659668205,273.9391857914493L240.83351125280126,244.7270772144586L237.6,244.1569219381653L219.70263939102438,247.38763509583444L240,240L240,240L240,240L240,240L240,240" style="opacity: 0.2;"></path><path class="line" fill="none" stroke="#000" d="M240,240L304.34773322199413,293.9941592136693L243.7508006376057,261.2718474650637L229.20000000000002,258.7061487217439L235.48947542022765,241.64169668796322L240,240L240,240L240,240L240,240L240,240" style="opacity: 0.2;"></path><path class="line" fill="none" stroke="#234099" d="M240,240L256.5465599713699,253.88421236922926L240,240L240,240L240,240L237.7447377101138,239.1791516560184L240,240L240,240L240,240L240,240" style="opacity: 0.2;"></path><path class="line" fill="none" stroke="#E3E01E" d="M240,240L416.49663969461255,388.0982652717786L246.66809002241013,277.81661771566877L220.8,273.25537550532243L237.7447377101138,240.8208483439816L240,240L238.8,237.92153903091736L240,240L240,240L240,240" style="opacity: 0.2;"></path><path class="line" fill="none" stroke="#E3E01E" d="M360,240L359.50293312656055,340.2748671111001L241.66702250560255,249.4541544289172L235.2,248.31384387633062L240,240L240,240L236.4,233.76461709275205L240,240L240,240L360,240" style="opacity: 0.2;"></path><path class="line" fill="none" stroke="#E3E01E" d="M480,240L295.1551999045664,286.28070789743083L243.33404501120506,258.9083088578344L230.4,256.62768775266125L235.48947542022765,241.64169668796322L240,240L240,240L240,240L240,240L480,240" style="opacity: 0.2;"></path><path class="line" fill="none" stroke="#714213" d="M360,240L287.80117325062423,280.10994684444006L240.83351125280126,244.7270772144586L237.6,244.1569219381653L224.21316397079673,245.74593840787125L240,240L240,240L240,240L240,240L360,240" style="opacity: 0.2;"></path><path class="line" fill="none" stroke="#000" d="M480,240L256.5465599713699,253.88421236922926L241.2502668792019,247.0906158216879L236.4,246.23538290724795L240,240L240,240L236.4,233.76461709275205L240.41675562640063,237.6364613927707L240,240L480,240" style="opacity: 0.2;"></path><path class="line" fill="none" stroke="#E3E01E" d="M480,240L263.90058662531214,260.05497342222003L249.58537940721456,294.36138796627387L212.4,287.80460228890104L210.68159023147965,250.67102847176088L240,240L240,240L240,240L240,240L480,240" style="opacity: 0.2;"></path><path class="line" fill="none" stroke="#E3E01E" d="M480,240L359.50293312656055,340.2748671111001L242.08377813200318,251.8176930361465L234,250.39230484541326L240,240L240,240L229.2,221.29385127825614L240,240L240,240L480,240" style="opacity: 0.2;"></path><path class="line" fill="none" stroke="#714213" d="M240,240L311.7017598759363,300.1649202666601L246.2513343960095,275.4530791084395L222,271.1769145362398L172.3421313034146,264.62545031944813L240,240L240,240L240,240L240,240L240,240" style="opacity: 0.2;"></path><path class="line" fill="none" stroke="#E3E01E" d="M240,240L416.49663969461255,388.0982652717786L247.50160127521139,282.5436949301274L218.4,277.4122974434878L237.7447377101138,240.8208483439816L240,240L237.6,235.8430780618347L240,240L240,240L240,240" style="opacity: 0.2;"></path><path class="line" fill="none" stroke="#20B818" d="M240,240L311.7017598759363,300.1649202666601L250.41889066001582,299.0884651807325L210,291.9615242270663L237.7447377101138,240.8208483439816L240,240L238.8,237.92153903091736L240,240L240,240L240,240" style="opacity: 0.2;"></path><path class="line" fill="none" stroke="#20B818" d="M360,240L416.49663969461255,388.0982652717786L252.08591316561836,308.5426196096497L205.20000000000002,300.27536810339694L240,240L240,240L219.59999999999997,204.6661635255949L240,240L240,240L360,240" style="opacity: 0.2;"></path><path class="line" fill="none" stroke="#20B818" d="M240,240L416.49663969461255,388.0982652717786L252.91942441841962,313.2696968241083L202.8,304.4322900415622L237.7447377101138,240.8208483439816L240,240L236.4,233.76461709275205L240,240L240,240L240,240" style="opacity: 0.2;"></path><path class="line" fill="none" stroke="#20B818" d="M240,240L311.7017598759363,300.1649202666601L255.83671380322406,329.8144670747134L194.40000000000003,318.98151682514083L129.49214779557718,280.22156885509867L237.7447377101138,239.1791516560184L240,240L240,240L240,240L240,240" style="opacity: 0.2;"></path><path class="line" fill="none" stroke="#20B818" d="M240,240L287.80117325062423,280.10994684444006L260.0042700672304,353.44985314700637L182.40000000000003,339.76612651596736L240,240L240,240L231.6,225.45077321642142L240,240L240,240L240,240" style="opacity: 0.2;"></path><path class="line" fill="none" stroke="#ff4d00" d="M240,240L304.34773322199413,293.9941592136693L267.08911571604114,393.63000946990445L162.00000000000003,375.09996299037243L237.7447377101138,240.8208483439816L240,240L235.2,231.68615612366938L240,240L240,240L240,240" style="opacity: 1;"></path><path class="line" fill="none" stroke="#ff4d00" d="M240,240L287.80117325062423,280.10994684444006L281.6755626400633,476.35386072292994L120.00000000000006,447.8460969082653L240,240L240,240L119.99999999999989,32.153903091734776L257.50373630882655,140.73137849636942L240,240L240,240" style="opacity: 1;"></path><path class="line" fill="none" stroke="#ff4d00" d="M360,240L416.49663969461255,388.0982652717786L276.6744951232557,447.9913974361783L134.40000000000003,422.90456527927347L240,240L240,240L218.39999999999998,202.58770255651226L240,240L240,240L360,240" style="opacity: 1;"></path><path class="line" fill="none" stroke="#B9186D" d="M360,240L247.35402665394219,246.17076105299077L240,240L240,240L64.08954138887793,304.0261708305652L240,240L240,240L240,240L240,240L360,240" style="opacity: 0.2;"></path><path class="line" fill="none" stroke="#714213" d="M240,240L392.5960530693004,368.0432918495586L240,240L240,240L240,240L14.473771011381984,157.91516560183953L240,240L240,240L240,240L240,240" style="opacity: 0.2;"></path><path class="line" fill="none" stroke="#234099" d="M240,240L247.35402665394219,246.17076105299077L240,240L240,240L240,240L240,240L240,240L240,240L423.8506663485547,85.7309736752305L240,240" style="opacity: 0.2;"></path></g></g><g class="legend" style="width: 124px; height: 144px; transform: translate(860px, 24px);"><rect style="fill: white; stroke: rgb(0, 0, 0); width: 124px; height: 162px; transform: translate(0px, 0px);"></rect><text style="fill: rgb(0, 0, 0); transform: translate(12px, 12px);">Cluster legend:</text><g class="cluster-label" style="width: 88px; height: 18px; transform: translate(12px, 18px);"><rect class="color-tag" style="height: 3px; width: 18px; transform: translate(0px, 7px); fill: rgb(35, 64, 153);"></rect><text class="cluster-name" style="fill: rgba(0, 0, 0, 0.95); height: 18px; line-height: 18px; font-size: 12px; transform: translate(23px, 12px);">Cluster 0</text></g><g class="cluster-label" style="width: 88px; height: 18px; transform: translate(12px, 36px);"><rect class="color-tag" style="height: 3px; width: 18px; transform: translate(0px, 7px); fill: rgb(227, 224, 30);"></rect><text class="cluster-name" style="fill: rgba(0, 0, 0, 0.95); height: 18px; line-height: 18px; font-size: 12px; transform: translate(23px, 12px);">Cluster 1</text></g><g class="cluster-label" style="width: 88px; height: 18px; transform: translate(12px, 54px);"><rect class="color-tag" style="height: 3px; width: 18px; transform: translate(0px, 7px); fill: rgb(32, 184, 24);"></rect><text class="cluster-name" style="fill: rgba(0, 0, 0, 0.95); height: 18px; line-height: 18px; font-size: 12px; transform: translate(23px, 12px);">Cluster 2</text></g><g class="cluster-label" style="width: 88px; height: 18px; transform: translate(12px, 72px);"><rect class="color-tag" style="height: 3px; width: 18px; transform: translate(0px, 7px); fill: rgb(185, 24, 109);"></rect><text class="cluster-name" style="fill: rgba(0, 0, 0, 0.95); height: 18px; line-height: 18px; font-size: 12px; transform: translate(23px, 12px);">Cluster 3</text></g><g class="cluster-label" style="width: 88px; height: 18px; transform: translate(12px, 90px);"><rect class="color-tag" style="height: 3px; width: 18px; transform: translate(0px, 7px); fill: rgb(113, 66, 19);"></rect><text class="cluster-name" style="fill: rgba(0, 0, 0, 0.95); height: 18px; line-height: 18px; font-size: 12px; transform: translate(23px, 12px);">Cluster 4</text></g><g class="cluster-label" style="width: 88px; height: 18px; transform: translate(12px, 108px);"><rect class="color-tag" style="height: 3px; width: 18px; transform: translate(0px, 7px); fill: rgb(0, 0, 0);"></rect><text class="cluster-name" style="fill: rgba(0, 0, 0, 0.95); height: 18px; line-height: 18px; font-size: 12px; transform: translate(23px, 12px);">Cluster 5</text></g><g class="cluster-label" style="width: 88px; height: 18px; transform: translate(12px, 126px);"><rect class="color-tag" style="height: 3px; width: 18px; transform: translate(0px, 7px); fill: rgb(255, 77, 0);"></rect><text class="cluster-name" style="fill: rgba(0, 0, 0, 0.95); height: 18px; line-height: 18px; font-size: 12px; transform: translate(23px, 12px);">Outliers</text></g></g></svg>